<?xml version="1.0" encoding="UTF-8"?> <svg xmlns="http://www.w3.org/2000/svg" xmlns:xlink="http://www.w3.org/1999/xlink" id="Layer_1" version="1.1" viewBox="0 0 250 150"><defs><style> .st0 { fill: none; } .st1, .st2 { fill-rule: evenodd; } .st1, .st3 { fill: #fff; } .st4 { fill: url(#linear-gradient2); } .st5 { fill: url(#linear-gradient1); } .st6 { fill: url(#linear-gradient9); } .st7 { fill: url(#linear-gradient3); } .st8 { fill: url(#linear-gradient6); } .st9 { fill: url(#linear-gradient8); } .st10 { fill: url(#linear-gradient7); } .st11 { fill: url(#linear-gradient5); } .st12 { fill: url(#linear-gradient4); } .st13 { fill: url(#linear-gradient13); } .st14 { fill: url(#linear-gradient12); } .st15 { fill: url(#linear-gradient11); } .st16 { fill: url(#linear-gradient10); } .st17 { fill: url(#linear-gradient14); } .st18, .st2 { fill: #2d2a26; } .st19 { fill: url(#linear-gradient); } .st20 { fill: #00833e; } .st21 { fill: #ce0e2d; } .st22 { fill: #90703d; } .st23 { fill: #976f33; } .st24 { fill: #dbdbda; } </style><linearGradient id="linear-gradient" x1="12.2" y1="50.4" x2="55.2" y2="50.4" gradientTransform="translate(0 152) scale(1 -1)" gradientUnits="userSpaceOnUse"><stop offset="0" stop-color="#ce0e2d"></stop><stop offset=".1" stop-color="#ce112e"></stop><stop offset=".2" stop-color="#d11b34"></stop><stop offset=".3" stop-color="#d52c3e"></stop><stop offset=".4" stop-color="#db434d"></stop><stop offset=".5" stop-color="#e3625f"></stop><stop offset=".5" stop-color="#e66c65"></stop><stop offset=".5" stop-color="#e3605e"></stop><stop offset=".6" stop-color="#db424c"></stop><stop offset=".7" stop-color="#d52b3e"></stop><stop offset=".8" stop-color="#d11a34"></stop><stop offset=".9" stop-color="#ce112e"></stop><stop offset="1" stop-color="#ce0e2d"></stop></linearGradient><linearGradient id="linear-gradient1" x1="52.5" y1="72.1" x2="54.6" y2="77.1" gradientTransform="translate(0 152) scale(1 -1)" gradientUnits="userSpaceOnUse"><stop offset="0" stop-color="#fff"></stop><stop offset="1" stop-color="#976f33"></stop></linearGradient><linearGradient id="linear-gradient2" x1="14.8" y1="72.1" x2="12.7" y2="77.2" xlink:href="#linear-gradient1"></linearGradient><linearGradient id="linear-gradient3" x1="33.7" y1="56.9" x2="33.7" y2="71.1" gradientTransform="translate(0 152) scale(1 -1)" gradientUnits="userSpaceOnUse"><stop offset="0" stop-color="#fefefe"></stop><stop offset=".2" stop-color="#f8f8f8"></stop><stop offset=".4" stop-color="#e9e8e8"></stop><stop offset=".6" stop-color="#d0cfce"></stop><stop offset=".9" stop-color="#adabaa"></stop><stop offset="1" stop-color="#9b9997"></stop></linearGradient><linearGradient id="linear-gradient4" x1="52" y1="78.8" x2="54.4" y2="83.7" xlink:href="#linear-gradient3"></linearGradient><linearGradient id="linear-gradient5" x1="53.7" y1="65" x2="56.3" y2="68" xlink:href="#linear-gradient3"></linearGradient><linearGradient id="linear-gradient6" x1="15.3" y1="78.8" x2="12.9" y2="83.7" xlink:href="#linear-gradient3"></linearGradient><linearGradient id="linear-gradient7" x1="13.7" y1="65" x2="11.1" y2="68" xlink:href="#linear-gradient3"></linearGradient><linearGradient id="linear-gradient8" x1="18" y1="66.8" x2="26" y2="74.9" gradientTransform="translate(0 152) scale(1 -1)" gradientUnits="userSpaceOnUse"><stop offset="0" stop-color="#fff"></stop><stop offset=".3" stop-color="#dbcdb8"></stop><stop offset=".6" stop-color="#b69a71"></stop><stop offset=".9" stop-color="#9f7b44"></stop><stop offset="1" stop-color="#976f33"></stop></linearGradient><linearGradient id="linear-gradient9" x1="48.8" y1="66.2" x2="41.4" y2="74.8" xlink:href="#linear-gradient8"></linearGradient><linearGradient id="linear-gradient10" x1="5.4" y1="100.3" x2="15.9" y2="92.8" gradientTransform="translate(0 152) scale(1 -1)" gradientUnits="userSpaceOnUse"><stop offset="0" stop-color="#fff"></stop><stop offset="0" stop-color="#f9f7f4"></stop><stop offset=".3" stop-color="#eae3d7"></stop><stop offset=".5" stop-color="#d2c2a8"></stop><stop offset=".8" stop-color="#b29468"></stop><stop offset="1" stop-color="#976f33"></stop></linearGradient><linearGradient id="linear-gradient11" x1="46.6" y1="103.1" x2="41.6" y2="93.7" gradientTransform="translate(0 152) scale(1 -1)" gradientUnits="userSpaceOnUse"><stop offset="0" stop-color="#fff"></stop><stop offset=".1" stop-color="#ebe4d8"></stop><stop offset=".3" stop-color="#d2c0a6"></stop><stop offset=".4" stop-color="#bca37d"></stop><stop offset=".6" stop-color="#ac8c5c"></stop><stop offset=".7" stop-color="#a07c45"></stop><stop offset=".9" stop-color="#997237"></stop><stop offset="1" stop-color="#976f33"></stop></linearGradient><linearGradient id="linear-gradient12" x1="30.4" y1="107.5" x2="29.9" y2="109.9" gradientTransform="translate(0 152) scale(1 -1)" gradientUnits="userSpaceOnUse"><stop offset="0" stop-color="#fefefe"></stop><stop offset="1" stop-color="#2d2a26"></stop></linearGradient><linearGradient id="linear-gradient13" x1="25.1" y1="85.8" x2="42.1" y2="85.8" gradientTransform="translate(0 152) scale(1 -1)" gradientUnits="userSpaceOnUse"><stop offset="0" stop-color="#dbdbda"></stop><stop offset="0" stop-color="#e6e6e5"></stop><stop offset=".2" stop-color="#f3f3f3"></stop><stop offset=".3" stop-color="#fbfbfb"></stop><stop offset=".5" stop-color="#fefefe"></stop><stop offset=".7" stop-color="#fafafa"></stop><stop offset=".8" stop-color="#efefee"></stop><stop offset=".9" stop-color="#dddcdb"></stop><stop offset="1" stop-color="#d0cfce"></stop></linearGradient><linearGradient id="linear-gradient14" x1="35.3" y1="85.7" x2="29.8" y2="82.3" gradientTransform="translate(0 152) scale(1 -1)" gradientUnits="userSpaceOnUse"><stop offset="0" stop-color="#fefefe"></stop><stop offset=".6" stop-color="#d0cfce"></stop></linearGradient></defs><path class="st18" d="M51,93.1s0,0,0,0c-4.9,3-10.5,5-16.3,5.2-.3.2-.9.7-.9.7,0,0-.7-.5-1-.7-5.8-.2-11.4-2.2-16.3-5.2,0,0,0,0,0,0,0,0-5.2,3.2-5.2,3.2v6.8c6.6,3.9,13.8,6.2,21.6,6.4.3.3,1,.8,1,.8,0,0,.7-.5.9-.8,7.8-.2,15-2.5,21.6-6.4v-6.8s-5.1-3.2-5.2-3.2h0Z"></path><path class="st19" d="M51.2,94.2c-4.9,2.8-10.8,5-16.5,5.1-.1.1-1.1.8-1.1.8,0,0-1-.7-1.1-.8-5.7-.2-11.6-2.3-16.5-5.1l-3.9,2.7v5.7c6.3,3.6,13.3,5.6,20.6,5.8h.1s.5.4.8.7c.3-.2.8-.7.8-.7h.1c7.3-.1,14.3-2.2,20.6-5.8v-5.7l-3.9-2.7h0Z"></path><path class="st3" d="M26.4,42.8c-1.3.7-1.4,1.6-1.1,2.2.1,0,.7,0,1.3-.4.3,0,1.7.2,2.7,1,.1-.4.2-.8.2-1.1,0-1.3-.6-2.4-1.4-3.1-.1,0-.2.1-.3.2-1.1.6-1,1.1-1.3,1.3h0Z"></path><path class="st23" d="M59.9,70.4c0-.3,0-.6-.1-1-.3-2.6-.2-5.2-.2-7.8,0-2.5-.3-4.7-1.5-6.9-1.1-1.9-3-4.4-5.4-4.7-2.1-.3-3.6,1.6-5.6,2.1-2.2.6-3.4.5-5.5-1-.8-.8-3.8-7-4.6-8.2-.9-1.4-2.1-2.3-3.8-2.7-1.9-.4-5.2.3-5.9,1.2-.5.6-.8.5-.8,1,0,.7,1.5,2.3,2.7,3.1-1,0,.5,2.2.3,2.8s-.2,3.3-3.3,3.9c-2.5.6-5.5,0-6.2-.2-2-.5-3.6-2.3-5.7-2-2.3.3-4.1,2.7-5.2,4.6-1.2,2.1-1.6,4.4-1.5,6.9,0,2.6.1,5.2-.2,7.8,0,.3,0,.6-.1,1,0-.1,11-5.8,11.3-6.1.5-.5.7-.8,1.3-1.4v14.7s1.8-2.3,2.3-1.8c.3.3-.9,8-1.9,11.6.2,0,1.6-.8,1.7-.7.2.1.1,1.9.2,2.1.1-.2.6-1.1,1-1,.4.1.4,1.1.4,1.4.3-.7.6-1.6.9-2.3.3-.7,1-1.9,1.5-2.6.4-.6,1.9-2.2,2.8-2.5,1.2-.4,4.2,0,4.7,1.5h.2c.9-2.1,3.8-2.2,5.3-1.1s2.7,3.2,3,3.8c.3.6,1.3,2.5,1.6,3.2,0-.3,0-1.3.3-1.4.4-.1.8.8,1,1,0-.2,0-2,.2-2.1.2,0,1.5.7,1.7.7-1-3.2-1.7-9.6-1.8-10,0-.3-.2-3.1,0-4.1.1,1.9.3,2.3,2.1,4.3,0-.5.2-13.4,0-14.7.6.6.7,1,1.3,1.4,1.8,1.2,11.3,6,11.3,6.1h0Z"></path><path class="st5" d="M47.4,74.7s0,0,.1-.1c.2.2.4.4.6.6.9.9,1.5,2,2.2,3,.8,1.1,1.8,1.9,2.8,2.8.8.8,4.7,3.7,6.6,4.8.3-1.5,0-4.6,0-6.1,0-1.4,0-2.3-1.2-3.2-1.6-1.1-3.4-1.8-5.1-2.8-1.5-.8-2.8-2-4.3-2.8-1.1-.6-1.5-1.4-1.7-2.3-.2,2-.1,4,0,6h0Z"></path><path class="st4" d="M19.9,74.7s0,0-.1-.1c-.2.2-.4.4-.6.6-.9.9-1.5,2-2.2,3-.8,1.1-1.8,1.9-2.8,2.8-.8.8-4.7,3.7-6.6,4.8-.3-1.5,0-4.6,0-6.1,0-1.4,0-2.3,1.2-3.2,1.6-1.1,3.4-1.8,5.1-2.8,1.5-.8,2.8-2,4.3-2.8,1.1-.6,1.5-1.4,1.7-2.3.2,2,.1,4,0,6h0Z"></path><path class="st3" d="M39.3,82.2c-1.1-1.1-3.8-1.4-5.7.9-1.8-2.3-4.5-2-5.7-.9-.2,1.1-3.2,10.9-3.5,11.9,1.5.4,1.5.2,2.5,0,.2,2.8,1.9,1.1,2.3.8,1.3,2.4,2.5.9,3.2-.2,0,.9.4,1.3,1.3,2,.9-.7,1.3-1.1,1.3-2,.7,1.1,1.9,2.5,3.2.2.4.4,2.1,2,2.3-.8,1,.3.9.5,2.5,0-.4-1-3.4-10.8-3.6-11.9h0Z"></path><path class="st3" d="M47.4,69.5c1,3,10.5,7.1,12.4,8.3,0-1.9-.2-3.2-.2-4.8,0-1.4,0-2.3-1.2-3.2-1.6-1.1-3.4-1.8-5.1-2.8-1.5-.8-2.8-2-4.3-2.8-1.1-.6-1.5-1.4-1.7-2.3-.2,2,0,7.6,0,7.5h0Z"></path><path class="st3" d="M47.4,80c0,1.4,1,2.5,2,3.3,0,.8.5,2.9,2.2,3.5,0,1.1,1,2.8,2.7,3.6,0,1.5,1.8,2.8,2.8,3-.7,4.6,2.1,6,2.8,6.5,0-1.9-.2-10-.2-11.5,0-1.4,0-2.3-1.2-3.2-4.9-3.6-9.3-8.7-11.1-10.9-.2,2,0,5.8.1,5.7h0Z"></path><path class="st3" d="M19.9,69.5c-1,3-10.5,7.1-12.4,8.3,0-1.9.2-3.2.2-4.8,0-1.4,0-2.3,1.2-3.2,1.6-1.1,3.4-1.8,5.1-2.8,1.5-.8,2.8-2,4.3-2.8,1.1-.6,1.5-1.4,1.7-2.3.2,2,0,7.6,0,7.5h0Z"></path><path class="st3" d="M19.9,80c0,1.4-1,2.5-2,3.3,0,.8-.5,2.9-2.2,3.5,0,1.1-1,2.8-2.7,3.6,0,1.5-1.8,2.8-2.7,3,.7,4.6-2.1,6-2.8,6.5,0-1.9.2-10,.2-11.5,0-1.4,0-2.3,1.2-3.2,4.9-3.6,9.3-8.7,11.1-10.9.2,2,0,5.8-.1,5.7h0Z"></path><path class="st7" d="M39.3,82.2c-1.1-1.1-3.8-1.4-5.7.9-1.8-2.3-4.5-2-5.7-.9-.2,1.1-3.2,10.9-3.5,11.9,1.5.4,1.5.2,2.5,0,.2,2.8,1.9,1.1,2.3.8,1.3,2.4,2.5.9,3.2-.2,0,.9.4,1.3,1.3,2,.9-.7,1.3-1.1,1.3-2,.7,1.1,1.9,2.5,3.2.2.4.4,2.1,2,2.3-.8,1,.3.9.5,2.5,0-.4-1-3.4-10.8-3.6-11.9h0Z"></path><path class="st12" d="M47.4,69.5c1,3,10.5,7.1,12.4,8.3,0-1.9-.2-3.2-.2-4.8,0-1.4,0-2.3-1.2-3.2-1.6-1.1-3.4-1.8-5.1-2.8-1.5-.8-2.8-2-4.3-2.8-1.1-.6-1.5-1.4-1.7-2.3-.2,2,0,7.6,0,7.5h0Z"></path><path class="st11" d="M47.4,80c0,1.4,1,2.5,2,3.3,0,.8.5,2.9,2.2,3.5,0,1.1,1,2.8,2.7,3.6,0,1.5,1.8,2.8,2.8,3-.7,4.6,2.1,6,2.8,6.5,0-1.9-.2-10-.2-11.5,0-1.4,0-2.3-1.2-3.2-4.9-3.6-9.3-8.7-11.1-10.9-.2,2,0,5.8.1,5.7h0Z"></path><path class="st8" d="M19.9,69.5c-1,3-10.5,7.1-12.4,8.3,0-1.9.2-3.2.2-4.8,0-1.4,0-2.3,1.2-3.2,1.6-1.1,3.4-1.8,5.1-2.8,1.5-.8,2.8-2,4.3-2.8,1.1-.6,1.5-1.4,1.7-2.3.2,2,0,7.6,0,7.5h0Z"></path><path class="st10" d="M19.9,80c0,1.4-1,2.5-2,3.3,0,.8-.5,2.9-2.2,3.5,0,1.1-1,2.8-2.7,3.6,0,1.5-1.8,2.8-2.8,3,.7,4.6-2.1,6-2.8,6.5,0-1.9.2-10,.2-11.5,0-1.4,0-2.3,1.2-3.2,6.7-4.8,9.3-8.7,11.1-10.9.2,2,0,5.8-.1,5.7h0Z"></path><path class="st9" d="M22.3,89c0-.4.2-1.7-.3-2.1-.3-.2-1.1.4-1.8.8,1.2-3.6,3.9-14.4,3.4-17.6,3.3,1.7,5.1,2.8,7.1,4.3,2,1.5,2.3,5.7.9,5.2-2.9-1.1-6.7,2.8-7.9,9.1-.3-.8-.6-1.4-1.5.2h0Z"></path><path class="st6" d="M45,89c0-.4-.2-1.7.3-2.1.3-.2,1.1.4,1.8.8-1.2-3.6-3.9-14.4-3.4-17.6-3.3,1.7-5.1,2.8-7.1,4.3-2,1.5-2.3,5.7-.9,5.2,2.9-1.1,6.7,2.8,7.9,9.1.3-.8.6-1.4,1.5.2h0Z"></path><path class="st16" d="M28,52c-6.4,4.6-12.4-2.2-14.5-.3-1.2,1.2-4.9,5.2-4.9,7s.2,10.1-.4,10.7c1.8,0,10.6-5.5,11.1-6,1.7-1.7,2.3-.8,4.5-.8.8-.6,1.7-1,2.6-1.5,3.2-2,1.6-5.9,1.6-9.1h0Z"></path><path class="st15" d="M58.5,58.4c-.6-1.7-4.4-6.8-6-6.8s-5.4,3.4-9.4,1.8c-4.8-1.9-4.1-9-9.5-11.6,1.8.5,3.5,1.5,3,1.2-2.6-4.6-8.6-2.7-9.9-.7-.2.8,1.3,2.3,2.5,3.3,1.1,1.8,1.3,1.9.3,5-.9,3,6.2,2.1,8.2,4.5,2.1,2.6,4.6,4.6,7.9,5.4.1,0,.2,0,.3,0,.7,1.8,5.8,6.7,13.2,9.1-1.1-1.4,0-9.4-.6-11.1h0Z"></path><path class="st3" d="M16.5,96.2c.2.3.4.3.8.3.1,0,.3,0,.4,0,.1,0,.3.5.5.5.2,0,.7,0,.9,0,.3,0,.6.4.9.4.3,0,.5-.2.6-.5,0-.3,0-1.4.3-1.7.1.1.5.4.8.5.2,0,.7.3.8.3,0,0-.9-1.6-1-2-.1-1.1.9-2.6,1.2-3.3.1-.3.5-1.4.6-1.7.1-.3.2-1.1,0-.9-1.1.8-.8-1.1-1.2-1-.9.2-1.1,1.6-1.3,2.3-.2.5-1.4,3.5-1.6,3.5-.2-.1-.6,0-.9.5-.3-.4-.7-.9-1.2-.9-.7,0-.4,1.1-.3,1.5,0,.3-.2,1.3-.2,1.6,0,.1,0,.3,0,.4h0Z"></path><path class="st3" d="M50.9,96.1c-.2.3-.7.5-1,.5-.1,0-.5.2-.6.3-.1.1-.3.1-.5.1-.2,0-.3,0-.5,0-.3,0-.6.3-.9.4-.3,0-.5-.2-.6-.5,0-.3-.3-1.5-.5-1.4-.2,0-1,.4-1.4.6,0,0,.9-1.7,1-2,.1-.3.2-.5,0-1,0,0-.7-1.4-1-2.1-.1-.3-.6-1.6-.7-1.9-.1-.3-.2-1.1,0-.9,1.1.8.8-1.1,1.2-1,.9.2,1.1,1.6,1.3,2.3.2.5.5,1.1.7,1.7.2.5.7,1.4.7,2.2,0,0,.2-.2.3-.2.4,0,.6,0,.7.4.3-.5.7-1,1.2-.9.7,0,.5,1.1.4,1.5,0,.3,0,.4.1.7.4,1,.1,1.4.1,1.4Z"></path><path class="st14" d="M31,42.6c0,.5-.5,1-1.1,1s-1.1-.4-1.1-1,.5-1,1.1-1,1.1.4,1.1,1Z"></path><path class="st18" d="M26.7,43.5h.1c0-.2-.2-.3-.4-.3s-.3.1-.3.3.1.3.3.3c0,0,0,0,0,0,0-.1.1-.2.3-.2h0Z"></path><path class="st2" d="M29.1,42.8c.3,1.1,2,.5,1.5-.7.6-.2,1.1-.3,1.7-.3-1.4-.2-3-.4-4,0-.5.2-.3.5-.3.6,0-.3.5-.3.8-.2-.2,2,2.3,1.8,2.2.1-.2,1.3-1.9,1.3-1.9.3h0Z"></path><path class="st1" d="M30.4,42.3c-.1-.1-.6-.2-.9,0,0-.2.2-.4.4-.4s.4.2.4.4Z"></path><path class="st18" d="M60.1,78.4c.3,0,.5.2.6.2-.7-1.1-.6-2.8-.6-3.2v-4.1c.3.1.5.2.6.2-.7-1.1-.6-2.8-.6-3.2v-9.6c0-2.7-4.1-9.1-7.5-9.2-2.5,0-5.3,3.4-8.8,2.5-1.1-.3-2-1.5-2.8-3-1.3-2.7-2.6-6.2-5.8-8.3-3.5-2.3-7.6.3-8.1.7-.4.4-1,1.5-1.4,1.6-1.1.6-1.3,1.5-1.3,1.9s0,1.3.8,1.8c-.1-.4-.1-.7,0-.9.4,0,1.4.3,2,0,.3.3,1,.9,1.4,1.5.4.8.4,1,.4,1.3,0,.9-.4,2.1-1.6,2.9-1.3.9-4.3,1.4-8.1.1-2-.7-2.9-2.1-4.7-2.1-3.4,0-7.5,6.5-7.5,9.2v9.6c0,.4,0,2.1-.6,3.2.2,0,.4-.2.6-.2v4.1c0,.4,0,2.1-.6,3.2.2,0,.4-.2.6-.2v5.3c0,.4,0,2.1-.6,3.2.2,0,.4-.1.6-.2v10.7c0,.3,0,1.4-.2,2.3,0,.3.1.7.5.6,1.4-.5,3.4-1.6,3.4-4.6v-1.7c1-.4,2.2-1.2,2.6-3.1,1.1-.6,2.4-1.5,2.6-3.5,1.2-.7,2.3-1.8,2.3-4.1,1-.8,1.6-1.6,1.7-2.3,0-.5.1-1.6.2-2.9.7-.5,1.3-1.1,1.5-1.7-.1,2.8-.7,6.5-2,11.7.2,0,.5,0,.9-.1-.2,1-1.1,3.5-1.7,4.7h-.3c-.2,0-.3.2-.4.5-.3-.4-.6-1.1-1.4-.8-.8.3-.6,1.2-.5,1.6.3.9-.3,1.1-.2,1.8,0,.5.4.8.7,1,0,.2.3.4.5.5.2,0,.2-.1.2-.4,0,0,.1,0,.2,0,0,.2.2.4.4.5,0,.2.2.3.6.5.3.1.1-.2,0-.5.1,0,.2,0,.3-.1,0,0,.1.2.2.2,0,0,0,0,0,0,0,.3.3.5.6.7.2,0,.1-.2.1-.4.3,0,.6-.2.7-.7.2-.7-.2-.7.2-1.5,0,0,.7.3.8.3-.6-.2-.9-1.7-1.1-1.3-.5.9,0,2.7-.6,2.7-1.7.1-.4-2-.4-2.5,0-.7,0-1.7.7-1.4.6.2,1.3,2.1,1.7,2.7,0,0,.9.6.9.4-.8-.8-1.2-2-1.3-2.4-.1-.5,0-.8.1-1.2.2-.4,1.1-2.1,1.5-2.9.1.3.2.6.3.9.1-1.7,2.1-5.1,3.8-7-.6,2-2,6.9-2.4,8.2-.3,1.1-1.1,2.3-1.2,2.4.6.2,1.8.4,2.7.1-.1.4-.1.8.3,1.2.5.5,1.7.8,2.4-.3.5,1.8,2.4,1.7,3.2.5.3,1,1,1.2,1.4,1.6.4-.4,1.1-.5,1.4-1.6.8,1.3,2.7,1.3,3.2-.5.6,1.1,1.9.8,2.4.3.4-.4.4-.8.3-1.2.8.3,2,.1,2.7-.1-.2-.2-.9-1.3-1.3-2.4-.4-1.3-1.8-6.2-2.4-8.2,1.7,2,3.7,5.3,3.8,7,0-.2.2-.5.3-.9.4.8,1.3,2.5,1.5,2.9.2.4.2.7,0,1.2,0,.4-.4,1.6-1.2,2.4,0,.2.7-.2.8-.2.4-.6,1.2-2.6,1.7-2.8.7-.2.6.8.7,1.4,0,.5,1.3,2.6-.4,2.5-.6,0-.1-1.8-.6-2.7-.1-.4-.4,1.1-1,1.3.1,0,.7-.3.8-.4.4.8,0,.8.2,1.5.1.5.4.7.7.7,0,.2-.1.5.1.4.3-.2.5-.4.6-.7,0,0,0,0,0,0,0,0,.1-.1.2-.2.1,0,.2.1.3.1,0,.3-.3.6,0,.5.3-.2.5-.4.6-.5.2,0,.3-.3.4-.5,0,0,.1,0,.2,0,0,.3,0,.5.2.4.2-.1.4-.3.5-.5.4-.2.6-.5.7-1,.1-.7-.5-1-.2-1.8.1-.4.3-1.4-.5-1.6-.8-.2-1.1.4-1.4.8-.1-.2-.2-.4-.4-.5,0,0-.2,0-.3,0-.6-1.1-1.5-3.6-1.7-4.7.3,0,.6.1.9.1-1.3-5.2-1.9-8.9-2-11.7.3.5.8,1.1,1.5,1.7,0,1.3,0,2.4.2,2.9.1.7.7,1.6,1.7,2.3,0,2.2,1.2,3.4,2.3,4.1.3,2,1.5,2.9,2.6,3.5.4,1.9,1.6,2.7,2.6,3.1v1.7c0,3,2,4.1,3.3,4.6.3.1.6-.1.6-.4-.3-1-.3-2.2-.3-2.5v-10.7c.3,0,.5.2.6.2-.7-1.1-.6-2.8-.6-3.2v-5.3h0ZM27.5,45.3c-.2,0-1.5.3-1.6.1.3-.1.5-.2,1-.5.4,0,.8.3,1.3.6-.3-.1-.4-.2-.7-.2h0ZM9.9,88.3v3c0,.4,0,1.5,0,2.8v2c0,1.3-1.2,2.4-2.1,2.8.2-.2.4-.8.4-1.8v-10.8c.6-.3,1.2-.7,1.6-1.2,0,0,.1,0,.2,0,0,1.7,0,3,0,3.3ZM9.9,79.1c0,.5,0,3,0,3.3,0,1.3-1.2,2.4-2.1,2.8.2-.2.4-.8.4-1.8v-5.4c.5-.2,1-.6,1.4-1,.1,0,.3-.1.4-.2,0,.7,0,1.6,0,2.2ZM7.7,76.9c.2-.2.4-.8.4-1.8v-4.2c.5-.2,1-.5,1.4-1,.1,0,.3-.1.4-.2,0,.3,0,.7,0,1.2v2.6c0,1.9-1.1,2.9-2.1,3.4ZM10.7,69.4c.5-.3,1.1-.6,1.5-1.1.1,0,.2,0,.3-.1,0,.3,0,.7,0,1.2v2.6c0,1.8-1,2.8-2,3.3.1-.5.2-1,.2-1.6v-2.6c0-.6,0-1.2,0-1.7h0ZM12.5,86.7v2.6c0,1.9-1.2,3-2,3.3.2-.2.2-.8.2-1.7v-2.5c0-.3,0-1.8,0-3.8.6-.3,1.3-.7,1.8-1.4,0,1.3,0,3,0,3.4h0ZM12.5,77.5v2.6c0,1.8-1.1,2.9-2,3.3.1-.4.2-.9.2-1.5h0v-2.7c0-.6,0-1.8,0-2.7.5-.3,1.1-.6,1.5-1.1.1,0,.2,0,.3-.1,0,.8,0,1.7,0,2.2h0ZM13.2,73.7c.1-.4.2-.9.2-1.5v-4.4c.3-.2.6-.3.9-.6.3,0,.5-.2.8-.2,0,.3,0,.6,0,1.1v2.4c0,1.7-.9,2.7-1.9,3.2h0ZM15.1,84v2.4c0,1.6-.8,2.6-1.7,3.1v-7.3c.6-.3,1.2-.8,1.7-1.4,0,.9,0,2.5,0,3.2h0ZM15.1,75.3v2.4c0,1.6-.8,2.6-1.7,3.1,0-.2,0-.3,0-.5v-5.4c.3-.2.7-.4,1-.6.2,0,.4-.2.7-.3,0,.4,0,.4,0,1.4ZM16,73.5c.3-.2.7-.5,1-.8.1,0,.2-.1.3-.2v3.1c0,1.4-.6,2.4-1.4,2.9,0-.2,0-.5,0-.7v-3.5c0-.3,0-.6,0-.9ZM17.4,80.7v2.4c0,1.4-.6,2.3-1.4,2.9v-3c0-.3,0-2.1,0-3.1.5-.3,1-.7,1.3-1.2,0,.6,0,1.5,0,1.9ZM17.4,66.9v2.4c0,1.6-.8,2.5-1.6,3.1.2-.5.3-1.1.3-1.7v-4.1c.4-.3.8-.6,1.1-.9,0,0,.2,0,.3-.1,0,.3,0,.8,0,1.4h0ZM19.7,80c0,.7-.6,1.5-1.4,2.1v-1.7c0-.4,0-2.7,0-3.8.7-.5,1.1-1.1,1.4-1.6,0,1.9,0,4.5,0,5h0ZM18.3,72c.7-.5,1.1-1.1,1.4-1.6,0,1.3,0,2.5,0,2.8,0,.7-.6,1.5-1.4,2.1v-2.4c0-.3,0-.6,0-1h0ZM19.7,68.7c0,.8-.7,1.6-1.6,2.3.1-.4.2-.9.2-1.4v-2.9c0-.5,0-1.1,0-1.7.6-.5,1.1-1,1.4-1.5,0,1.9,0,4.8,0,5.3ZM17.7,94.2c0,.3.4,2.1-.3,2.2-.6.1-1.3-.3-.8-1.6.2-.7-.2-2,.3-2.1.5-.1,1,.6,1.2,1.2,0,.2,0,.4,0,.4-.2-.2-.4-.6-.4-.2ZM19.6,94.7c0,.1,0,.3,0,.4-.1-.3-.4-1-.4-.5s0,2.2-.6,2.3c-.6,0-.8-.5-.4-1.2.3-.6,0-2.5.5-2.6.4,0,.8.4.9.8,0,.2,0,.4,0,.7h0ZM22.4,90.8c-.2.4-.5.5-.7.8-.2.3-.1.9-.4,1.2-.2.2-.3.3-.2.8-.2-.3-.4-.4-.5-.6-.3-.2-.8-.2-1,.2,0-.1-.1-.2-.2-.3,0-.1.1-.2.2-.4.1-.3,0-.6.2-.8,0-.1.3-.3.4-.5.1-.2,0-.7.2-1,.1-.2.3-.3.4-.7,0-.1.1-.7.2-.9.1-.4.5-.9,1-1.2,0,.8,0,1.1.2,2,.4-.4.7-.7,1-1,0,.6,0,.8-.3,1.2-.2.4-.1.6-.3,1h0ZM24.9,93.8c.3-.3.5-1.1.7-1.9.2-.7,1.9-7.2,2.4-8.9.3-.3.5-.5.8-.7.2-.1.4-.2.6-.3-.4,1.7-2.1,9.2-2.4,10.7-.3,1-1,1.2-2.1,1h0ZM29,93.7c-.2,1-.3,1.6-1.4,1.3-.7-.2,0-1.3,0-2.1.1-.7,1.9-9.5,2.2-10.8.3,0,.7,0,1,0-.2.9-1.8,11.5-1.8,11.5ZM32.2,92.4c0,1-.1,1.7-.2,1.9-.4,1.9-2.8,1.8-2.4-.7.1-.7,1.4-9.5,1.6-11.3.5.1,1,.3,1.4.6,0,1-.3,6.2-.5,9.5h0ZM33.7,96.1c-.5-.3-.9-.8-.9-2.2s.2-9.4.2-10.7c.3.3.5.6.6,1,0-.4.3-.7.6-1,0,1.3.2,9.4.2,10.7s-.4,1.9-.9,2.2ZM35.3,94.3c0-.2-.1-1-.2-1.9-.2-3.3-.4-8.5-.5-9.5.4-.3.9-.5,1.4-.6.3,1.8,1.5,10.7,1.6,11.3.4,2.5-2,2.6-2.4.7h0ZM39.8,95c-1.1.3-1.3-.4-1.4-1.3,0,0-1.6-10.6-1.8-11.5.4,0,.7-.1,1.1,0,.2,1.2,2.1,10.1,2.2,10.8.1.8.8,2,0,2.1ZM41.7,92c.2.8.4,1.5.7,1.9-1.1.2-1.8,0-2.1-1-.3-1.5-2-9-2.4-10.7.3,0,.5.1.6.3.2.2.5.4.8.7.4,1.6,2.2,8.2,2.4,8.9h0ZM49.2,94c.2-.6.6-1.3,1.2-1.2.4,0,0,1.4.3,2.1.5,1.3-.2,1.7-.8,1.6-.7-.2-.4-2-.3-2.2,0-.4-.2,0-.4.2,0-.1,0-.2,0-.5h0ZM48.7,93.2c.4,0,.2,1.9.5,2.6.3.7.2,1.2-.4,1.2-.6,0-.6-1.9-.6-2.3,0-.5-.2.2-.4.5,0-.1,0-.2,0-.4,0-.3,0-.5,0-.7.2-.4.5-.9.9-.8h0ZM47.1,91.3c.1.2.4.4.4.5,0,.2,0,.5.2.8,0,.1.1.3.2.4,0,0-.1.2-.2.3-.2-.4-.6-.5-1-.2-.2.1-.4.3-.5.6,0-.5,0-.6-.2-.8-.3-.3-.2-.9-.4-1.2-.2-.3-.5-.4-.7-.8s-.1-.6-.3-1c-.2-.5-.3-.6-.3-1.2.3.3.6.6,1,1,.1-1,.2-1.2.2-2,.4.4.8.9,1,1.2,0,.2.2.8.2.9.1.3.2.4.4.7.1.2,0,.7.2,1h0ZM47.2,73.4v.2s0,0,0-.2ZM49,80.4v1.7c-.8-.6-1.4-1.4-1.4-2.1s0-3.1,0-5c.3.5.8,1.1,1.4,1.6,0,1.1,0,3.4,0,3.8h0ZM47.6,70.5c.3.5.8,1.1,1.4,1.6v3.4c-.8-.6-1.4-1.4-1.4-2.1s0-1.5,0-2.8h0ZM47.6,68.7c0-.5,0-3.4,0-5.3.3.5.8,1.1,1.4,1.5,0,.5,0,1.2,0,1.7v2.9c0,.5,0,1,.2,1.4-.9-.6-1.6-1.4-1.6-2.3h0ZM51.3,83v3c-.7-.6-1.4-1.5-1.4-2.9v-2.4c0-.4,0-1.3,0-1.9.4.5.9.9,1.3,1.2,0,1,0,2.8,0,3.1ZM49.9,75.7v-3.1c.1,0,.2.1.3.2.3.3.6.6,1,.8,0,.3,0,.6,0,.9v3.5c0,.2,0,.5,0,.7-.8-.6-1.4-1.5-1.4-2.9ZM49.9,69.3v-2.4c0-.6,0-1.1,0-1.4,0,0,.2,0,.3.1.3.3.7.7,1.1.9v4.1c0,.6.1,1.2.3,1.7-.8-.5-1.6-1.5-1.6-3.1h0ZM53.9,85.4v4.1c-.9-.5-1.7-1.5-1.7-3.1v-2.4c0-.7,0-2.3,0-3.2.5.6,1.1,1.1,1.7,1.4v3.2ZM52.2,77.7v-2.4c0-.9,0-.9,0-1.4.3.1.5.2.7.3.3.3.7.5,1,.6v5.4c0,.2,0,.4,0,.5-.9-.5-1.7-1.5-1.7-3.1h0ZM52.2,70.5v-3.5c.2,0,.5.2.8.2.3.2.6.4.9.6v4.4c0,.6,0,1.1.2,1.5-.9-.5-1.9-1.5-1.9-3.2h0ZM54.8,89.4v-2.6c0-.5,0-2.1,0-3.4.5.7,1.2,1.1,1.8,1.4,0,1.9,0,3.5,0,3.8v2.5c0,.9,0,1.5.2,1.7-.8-.3-2-1.4-2-3.3h0ZM54.8,80.1v-2.6c0-.5,0-1.5,0-2.2.1,0,.2,0,.3.1.5.5,1,.9,1.5,1.1,0,.9,0,2.1,0,2.7v2.7h0c0,.6,0,1.1.2,1.5-.9-.4-2-1.5-2-3.3ZM54.8,72v-2.6c0-.5,0-.9,0-1.2.1,0,.2,0,.3.1.5.5,1,.9,1.5,1.1,0,.5,0,1.1,0,1.7v2.6c0,.6,0,1.1.2,1.6-1-.5-2-1.5-2-3.3h0ZM57.5,96.1v-2c0-1.3,0-2.4,0-2.8v-3c0-.3,0-1.6,0-3.3,0,0,.1,0,.2,0,.5.6,1.1.9,1.6,1.2v10.8c0,.9.2,1.5.4,1.8-.9-.4-2.1-1.5-2.1-2.8h0ZM57.5,82.4c0-.3,0-2.8,0-3.3s0-1.5,0-2.2c.2,0,.3.1.4.2.4.4.9.7,1.4,1v5.4c0,.9.2,1.5.4,1.8-.9-.4-2.1-1.5-2.1-2.8h0ZM57.5,73.6v-2.6c0-.4,0-.8,0-1.2.2,0,.3.1.4.2.4.4.9.7,1.4,1v4.2c0,.9.2,1.5.4,1.8-1-.4-2.1-1.5-2.1-3.4h0ZM57.4,66.4v-2.1c0-.9-.1-2.1-1-2.6.3,1,0,1.2,0,2.8v2.1c0,.6,0,1.1.2,1.6-1-.5-2-1.5-2-3.3s-.1-3.1-.9-4.2v4.3c0,.6,0,1.1.2,1.5-2.3-1.2-2.1-5.1-2.8-6.7,0,1.3,0,2.3,0,3.6s.1,1.2.3,1.7c-2-1.3-2.2-3.8-2.4-5.7-.2.7-.5,2.5,0,4.3-1.3-1-2.1-3.2-2-4.8-.2.9-.4,2.2,0,3.4,0,1.5,0,13.1,0,14.4-.8-.6-1.5-1.8-1.5-3.5,0-.3,0-.6.1-.8.5-3.6.6-8.9-.9-13,1.2,6.5-.3,13.3-.5,14.6-.4,2.4.4,7.4,2.1,13-.3-.3-1.5-.8-1.9-1.3,0,.5.2,1,.2,2.1-.6-1-.8-1-1.4-2.1.2,1.3.1,1.4.1,2.5-.6-1.1-.9-2.7-2.3-4.8-3.1-4.8-7.6-1.8-7.6-1,0-.8-4.5-3.8-7.5,1-1.4,2.2-1.7,3.7-2.3,4.8,0-1.1,0-1.2.1-2.5-.6,1.1-.8,1.1-1.4,2.1,0-1.1.2-1.6.2-2.1-.4.5-1.6.9-1.9,1.3,1.7-5.6,2.5-10.6,2.1-13-.2-1.4-1.7-8.1-.5-14.6-1.5,4.2-1.4,9.4-.9,13,0,.3,0,.5.1.8,0,1.7-.7,2.9-1.5,3.5,0-1.3,0-12.9,0-14.4.4-1.3.2-2.6,0-3.4,0,1.6-.7,3.8-2,4.8.5-1.7.2-3.5,0-4.3-.2,1.9-.4,4.4-2.4,5.7.2-.5.3-1,.3-1.7,0-1.3,0-2.3,0-3.6-.8,1.5-.5,5.5-2.8,6.7.1-.4.2-1,.2-1.5v-4.3c-.8,1-.9,3.5-.9,4.2,0,1.8-1,2.8-2,3.3.1-.5.2-1,.2-1.6v-2.1c0-1.7-.2-1.8,0-2.8-.8.6-1,1.7-1,2.6v2.1c0,1.9-1.1,2.9-2.1,3.4.2-.2.4-.8.4-1.8v-9.1c0-2.6,3-5.5,4.1-6.8,3.1-3.6,4.4-.7,7.5.4,5.1,1.7,7.9-.2,7.9-.2,2.7-1.7,2.8-3.3,2.8-4.4s-.3-1.6-.8-2.2c-.9-.9-2.6-1.2-2.9-1.2-.6.3-1.2.3-1.3.4-.3-.6-.2-1.4,1.1-2.2.4-.2.2-.7,1.3-1.3,3.2-1.9,6.4-1.2,8.2.9-.6-.2-1.3-.5-2.4-.6,1.5.5,3.4,1.8,4.5,3.9.5.9,1.6,3.2,2,3.9.8,1.5,2.3,4.6,7.6,2.9,3.1-1,4.4-4,7.5-.4,1.1,1.3,4.1,4.2,4.1,6.8v9.1c0,.9.2,1.5.4,1.8-1-.4-2.1-1.5-2.1-3.4h0Z"></path><path class="st3" d="M26.9,44.9c-.5.3-.7.4-1,.5.2.2,1.4,0,1.6-.1.3,0,.3,0,.7.2-.6-.3-1-.6-1.3-.6h0Z"></path><path class="st24" d="M43.7,66.2c0,5.5-4.5,10-10,10s-10-4.5-10-10,4.5-10,10-10,10,4.5,10,10Z"></path><path class="st13" d="M42.1,66.2c0,4.7-3.8,8.5-8.5,8.5s-2-.2-2.9-.5c-3.3-1.2-5.6-4.3-5.6-8s2.4-6.8,5.6-8c.9-.3,1.9-.5,2.9-.5,4.7,0,8.5,3.8,8.5,8.5h0Z"></path><path class="st20" d="M41.6,63.4c-7.4-2-16.1,0-16.1,0,.9-2.4,2.7-4.3,5.2-5.2.9-.3,1.9-.5,2.9-.5,3.7,0,6.9,2.4,8,5.7Z"></path><path class="st18" d="M41.6,69.1c-7.4,2-16.1,0-16.1,0,.9,2.4,2.7,4.3,5.2,5.2.9.3,1.9.5,2.9.5,3.7,0,6.9-2.4,8-5.7h0Z"></path><rect class="st0" x="30.4" y="69.3" width="10.5" height="4.8"></rect><rect class="st0" x="30.7" y="58.3" width="10.5" height="4.8"></rect><path class="st17" d="M34.9,62.8c3.6.2,6.1.7,6.1.7.8.8.7,4,0,5.3,0,0-2.6.6-5.5.7-2.1.1-4.8-.1-4.8-.1,0,0-.1-.9-.1-3.2s.1-3.3.1-3.3c0,0,2.2-.2,4.2-.1h0Z"></path><path class="st21" d="M30.1,66c0,4.8.5,8.2.5,8.2-3.3-1.2-5.6-4.3-5.6-8s2.4-6.8,5.6-8c0,0-.6,2.9-.6,7.8Z"></path><rect class="st0" x="25.8" y="59.1" width="4.8" height="14.5"></rect><path class="st18" d="M33.7,76.7c-5.8,0-10.4-4.7-10.4-10.4s4.7-10.4,10.4-10.4,10.4,4.7,10.4,10.4-4.7,10.4-10.4,10.4ZM33.7,56.5c-5.4,0-9.7,4.4-9.7,9.7s4.4,9.7,9.7,9.7,9.7-4.4,9.7-9.7-4.4-9.7-9.7-9.7Z"></path><path class="st18" d="M39.7,75.1s-.9-.2-1.1-.3l-.3-1.1h0s0,0,0,0c0,0-.5.7-.6.9-.2,0-1.1,0-1.1,0t0,0h0s.7.9.7.9c0,.2-.4,1.1-.4,1.1h0s0,0,0,0l1-.4.8.6h0s0,0,0,0c0,0,0-.9,0-1.1.2-.1,1-.6,1-.6,0,0,0,0,0,0,0,0,0,0,0,0"></path><path class="st3" d="M38.8,75.2h0s0,0,0,0h-.1s-.4-.2-.4-.2v-.2c0,0-.1-.3-.1-.3,0,0,0,0,0,0h0l-.3.4h-.5s.3.5.3.5v.3c-.1,0-.2.2-.2.2h0s0,0,0,0h.2c0,0,.3-.2.3-.2l.4.3h0s0,0,0,0v-.6l.4-.2"></path><path class="st18" d="M30.7,74.5s0,0,0,0c0,0-.9,0-1.1,0-.1-.2-.6-.9-.6-.9h0s0,0,0,0l-.3,1.1c-.2,0-1.1.3-1.1.3,0,0,0,0,0,0h0s.8.5,1,.6c0,.1,0,1.1,0,1.1t0,0h0l.8-.6,1,.4h0s0,0,0,0c0,0-.3-.9-.4-1.1l.7-.9h0"></path><path class="st3" d="M29.7,75.2l.2-.3h0s0,0,0,0h-.5l-.2-.2-.2-.2h0s0,0,0,0v.5c-.1,0-.4,0-.4,0h-.2c0,0,0,0,0,.1,0,0,0,0,0,0l.4.2v.6h0s0,0,0,0h0l.3-.2h.2c0-.1.3,0,.3,0h.1s0,0,0,0h0s-.1-.3-.1-.3v-.2c0,0,0-.2,0-.2h0Z"></path><path class="st18" d="M27.4,60l-1-.5v-1.1c0,0,0,0-.1,0h0s-.6.6-.8.8l-1-.2h0s.3.8.4,1c-.1.2-.6.9-.6.9h0s0,0,0,0c0,0,.9-.2,1.1-.2l.7.9h0s0,0,0,0c0,0,.1-.8.2-1.1.2-.1,1-.4,1-.4,0,0,0,0,0,0,0,0,0,0,0,0"></path><path class="st18" d="M35.2,55.6s0,0,0,0c0,0-.9,0-1.1,0-.1-.2-.5-.9-.5-.9,0,0,0,0,0,0,0,0,0,0,0,0,0,0-.4.7-.5,1-.2,0-1.1,0-1.1,0,0,0,0,0,0,0h0s.7.6.8.8l-.2,1.1h0s0,0,0,0h0s.8-.4,1-.5c.2.1,1,.5,1,.5h0s0,0,0,0l-.2-1.1c.2-.2.9-.8.9-.8h0"></path><path class="st3" d="M34.4,55.8s0,0,0,0h-.5s-.2-.5-.2-.5c0,0,0,0,0,0,0,0,0,0,0,0l-.2.5h-.5s0,0,0,0h0s.4.4.4.4v.5c-.1,0-.1,0-.1,0h0l.5-.2.5.2h0s-.1-.6-.1-.6l.4-.4s0,0,0,0"></path><path class="st18" d="M42.9,60.8s-.5-.7-.6-.9c.1-.2.4-1,.4-1h0s0,0,0,0l-1,.2c-.2-.2-.8-.8-.8-.8h0s0,0,0,0v1.1c0,0-1.1.5-1.1.5,0,0,0,0,0,0s0,0,0,0c0,0,.8.3,1,.4,0,.2.2,1.1.2,1.1,0,0,0,0,0,0h0l.7-.9c.2,0,1.1.2,1.1.2,0,0,0,0,0,0h0"></path><path class="st3" d="M42.2,60.4l-.3-.4.3-.5h0s0,0,0,0h-.6c0,.1-.3-.3-.3-.3,0,0,0,0,0,0,0,0,0,0,0,0v.5s-.5.3-.5.3c0,0,0,0,0,0,0,0,0,0,0,0l.5.2v.5c.1,0,.1,0,.1,0h0l.4-.4h.5c0,0,0,0,0,0h0"></path><path class="st3" d="M26.5,59.9l-.5-.3v-.5s0,0,0,0h0l-.3.4h-.6c0-.1,0-.1,0-.1h0s.3.5.3.5l-.3.4h0s0,0,0,0h.5c0,0,.4.4.4.4h0s0,0,0,0v-.5c.1,0,.6-.2.6-.2,0,0,0,0,0,0,0,0,0,0,0,0"></path><path class="st18" d="M25.3,69.2s-.6-.6-.7-.8c0-.2.3-1.1.3-1.1h0s0,0,0,0l-1,.5c-.2-.1-.9-.6-.9-.6h0s0,0,0,0c0,0,.1.9.2,1.1l-.8.7s0,0,0,0c0,0,0,0,0,0,0,0,.8.2,1,.2,0,.2.3,1.1.3,1.1,0,0,0,0,0,0,0,0,0,0,0,0,0,0,.4-.8.5-1h1.1s0,0,0,0h0"></path><path class="st3" d="M24.6,68.9l-.4-.4v-.5c.1,0,.1,0,.1,0,0,0,0,0,0,0l-.5.2-.4-.3h0s0,0,0,0v.5c.1,0-.3.4-.3.4,0,0,0,0,0,0,0,0,0,0,0,0h.6c0,.1.1.6.1.6,0,0,0,0,0,0h0l.3-.4h.6s0,0,0,0h0"></path><path class="st18" d="M45,68.9l-.8-.7c0-.2.2-1.1.2-1.1h0s0,0,0,0c0,0-.7.5-.9.6l-1-.5h0s0,0,0,0c0,0,.2.8.3,1.1-.2.2-.7.8-.7.8h0s0,0,0,0h1.1c.1.2.5,1,.5,1,0,0,0,0,0,0,0,0,0,0,0,0,0,0,.3-.8.3-1.1.2,0,1-.2,1-.2,0,0,0,0,0,0h0"></path><path class="st3" d="M44.2,68.7l-.4-.4v-.5c.1,0,.1,0,.1,0h0l-.4.3-.5-.2h0s.1.5.1.5l-.4.4h0s0,0,0,0h.6l.3.5h0s0,0,0,0v-.5c.1,0,.7-.1.7-.1,0,0,0,0,0,0h0"></path><path class="st3" d="M47.9,103.8c.1.4-.1.9-.6,1-.4.1-.9,0-1.1-.3.1.2.4.3.7.2.3-.1.5-.4.4-.7-.1-.4-.3-.9-.4-1.3,0-.2-.2-.2-.4-.2.2-.3.4-.7.6-1,.2.8.5,1.5.7,2.3Z"></path><path class="st3" d="M30.6,106.7c.2,0,.3,0,.3-.2,0-.1-.1-.3-.3-.3-.2,0-.3.1-.3.2,0,.1.1.3.3.3Z"></path><path class="st3" d="M22.4,101c-.2,0-.3,0-.4.2,0,.1,0,.3.2.3.2,0,.3,0,.3-.2,0-.1,0-.3-.2-.3Z"></path><path class="st3" d="M42.6,101.9c-.2,0-.3.2-.2.3,0,.1.2.2.3.2.2,0,.3-.2.2-.3,0-.1-.2-.2-.3-.2Z"></path><path class="st3" d="M31.8,106.7c.2,0,.3-.1.3-.2,0-.1-.1-.3-.3-.3s-.3.1-.3.2.1.3.3.3h0Z"></path><path class="st3" d="M29.8,106.6c.2,0,.3,0,.3-.2,0-.1-.1-.3-.3-.3-.2,0-.3,0-.3.2,0,.1.1.3.3.3Z"></path><path class="st3" d="M23,101.1c-.2,0-.3,0-.3.2,0,.1,0,.3.2.3.2,0,.3,0,.3-.2,0-.1,0-.3-.2-.3Z"></path><path class="st3" d="M43.3,101.8c-.2,0-.3.2-.2.3,0,.1.2.2.3.2.2,0,.3-.2.2-.3,0-.1-.2-.2-.3-.2Z"></path><path class="st3" d="M54.2,100.9c0-.2-.2-.3-.2-.5-.6-1.3-1.3-2.5-1.9-3.8.4,0,.7.2,1.1.3-.2.1-.2.3,0,.5.6,1.1,1.1,2.2,1.7,3.2-.2,0-.4.2-.5.3Z"></path><path class="st3" d="M39.2,105.4c-.2-1.6-.4-3.2-.6-4.7.3.2.6.4.9.6-.2,0-.2.2-.2.4.2,1.2.3,2.4.5,3.6-.2,0-.4,0-.6,0h0Z"></path><path class="st3" d="M26.7,105.2c.2-1.6.5-3.1.8-4.7.2.3.5.6.7.9-.2,0-.3.2-.3.3-.2,1.2-.4,2.4-.5,3.6-.2,0-.4,0-.6,0Z"></path><path class="st3" d="M46.1,104c0-.2,0-.3-.1-.5-.4-1.4-.8-2.7-1.2-4.1.3.2.7.3,1,.5-.2.1-.2.3-.2.4.3,1.2.7,2.3,1,3.5-.2,0-.4.1-.6.2h0Z"></path><path class="st3" d="M45.5,104.2c-.2-.9-.4-1.7-.7-2.6-.2.3-.4.6-.7.9.2,0,.3.1.4.3,0,.3.2.7.2,1-.9.2-1.8.4-2.7.6-.1,0-.2,0-.4,0-.2-.1-.4-.2-.5-.3.4-.4.7-1.2.5-1.8-.1.9-.5,1.5-1.5,1.9.4.3.9.6,1.4.9.2,0,.4,0,.6-.1,1.1-.2,2.2-.5,3.3-.8Z"></path><path class="st3" d="M49.8,100.9c.4.1.8.3,1.1.4.1.3.2.6.4.9-.3.1-.6.2-.9.3,0-.2-.1-.3-.2-.5,0,0,.2,0,.3-.1,0,0,0-.1,0-.2-.1,0-.3,0-.4-.1,0-.2-.2-.5-.3-.7h0ZM48.4,103.3c0-.2-.1-.3-.2-.5-.5-1.3-.9-2.7-1.4-4,.3.1.7.3,1,.4-.2.1-.2.3-.1.4.3,1,.7,2,1,2.9.2,0,.4-.1.6-.2,0-.1-.1-.3-.1-.4.2-.4.4-.7.6-1.1,0,.2.2.5.3.7,0,.1-.1.2-.2.4,0,0,0,.1,0,.2,0,0,.2,0,.3-.1,0,.2.1.3.2.5-.5.2-1,.4-1.5.5,0,0,0,0-.1,0-.1,0-.3.1-.4.2h0Z"></path><path class="st3" d="M35.9,103c.2,0,.5.2.6.4.2,0,.5,0,.7,0-.3.6-.5,1.2-.8,1.7.5,0,1.1,0,1.6-.1-.1-1-.2-2.1-.3-3.1,0-.2,0-.3-.3-.3.3-.3.5-.5.8-.8.2,1.6.3,3.2.5,4.7-.2,0-.3,0-.5,0h0c-.7,0-1.3.1-2,.1,0-.4,0-.7,0-1.1.1-.2.2-.4.3-.6h-.2c0-.2,0-.2-.2-.3,0-.2,0-.4,0-.6h0ZM34.1,106c0,.4-.4.8-.9.8-.4,0-.8-.3-.9-.6,0,.2.3.4.6.4.3,0,.6-.2.6-.5v-1.3c0-.2-.1-.3-.3-.3.3-.3.6-.5.9-.8v1.6c.5,0,1,0,1.6,0-.3-.5-.7-1.1-1-1.7.2,0,.5,0,.7,0,0-.2.3-.4.6-.4,0,.2,0,.4,0,.6,0,0-.1.2-.2.3h-.2c.1.2.2.4.4.6,0,.4,0,.7,0,1.1-.6,0-1.3,0-1.9,0v.3h0Z"></path><path class="st3" d="M24,104.6c.5.1,1,.2,1.5.3,0,0,0,0,0,0,.2,0,.4,0,.5.1.3-1.6.5-3.1.8-4.7-.3.2-.6.4-1,.6.2,0,.2.3.2.4-.2,1-.4,2-.6,3.1-.2,0-.4,0-.6-.1,0-.1,0-.3,0-.4-.2-.3-.5-.6-.7-1,0,.2-.1.5-.2.7,0,.1.2.2.2.3,0,0,0,.1,0,.2-.1,0-.2,0-.3,0,0,.2,0,.3-.1.5h0ZM20.1,103c0,0,0-.1,0-.2.1-.4-.2-.9-.6-1.1,0,0,0,0-.1,0-1.1-.4-2.2-.8-3.3-1.3,0-.2.1-.3.2-.5,0-.1.2-.2.4-.1-.2-.4-.3-.7-.5-1.1-.3.6-.6,1.3-.9,1.9,1.3.6,2.6,1.1,4,1.6.2,0,.3.3.2.4,0,0,0,.1,0,.2,0,.2-.1.4-.2.5-.1,0-.2.1-.4.1,0-.1-.1-.2-.2-.4,0-.2.1-.4.2-.5-.1,0-.3-.1-.4-.2,0,0-.1,0-.2,0-1.1-.4-2.2-.9-3.2-1.3,0,.2-.1.3-.2.5,1.1.5,2.2,1,3.3,1.4,0,0,0,.2,0,.2.2.4.4.7.6,1.1.4-.1.8-.3,1.1-.4,0,0,0-.2,0-.3.4.1.9.3,1.3.4,0,.1.2.2.3.3,0,0-.1-.2-.1-.3.4.1.7.2,1.1.3.5.1,1,.2,1.5.4,0-.2,0-.3.1-.5-.1,0-.2,0-.3,0,0,0,0-.1,0-.2.1,0,.2-.1.3-.2,0-.2.1-.5.2-.7-.3.2-.7.4-1.1.6,0,.1,0,.3-.1.4-.2,0-.4-.1-.6-.2.1-.6.3-1.2.4-1.7-.3.2-.7.3-1.1.5.2.1.2.3.2.4,0,.2-.1.4-.2.7,0,0-.2,0-.3,0-.2,0-.3-.1-.5-.1,0-.2,0-.4,0-.6.1-.6.3-1.4-.5-2.3-.2.1-.5.2-.7.3.6.2.8.7.9,1.1,0,.5-.2.9,0,1.3-.3,0-.6-.2-.9-.3h0Z"></path><path class="st3" d="M29.2,105c.1,0,.2,0,.3,0,0-.2,0-.4,0-.7,0,0-.2,0-.3,0,0-.2,0-.4,0-.6.1,0,.3-.2.3-.4,0-.5.1-1,.1-1.5,0-.2,0-.3-.2-.4.3-.2.6-.4.9-.7-.1,1.4-.2,2.8-.4,4.2.3,0,.6,0,1,0,0-.2,0-.5,0-.7,0-.2,0-.3-.3-.4.3-.2.6-.5.9-.7,0,.6,0,1.2,0,1.8.2,0,.4,0,.6,0,0-.2,0-.5,0-.7,0-.2,0-.3-.3-.4.3-.2.6-.5.9-.7,0,.8,0,1.6,0,2.3-.9,0-1.8,0-2.7-.1-.3,0-.7,0-1-.1,0-.2,0-.3,0-.5h0ZM29.2,104.4c-.2,0-.3.1-.3.2,0,0,0,.2,0,.3.1,0,.2,0,.3,0,0,.2,0,.3,0,.5,0,0-.1,0-.2,0-.2,0-.5,0-.7,0,0-.3,0-.5.1-.8,0-.4.4-.7.8-.7,0,0,0,0,.2,0,0,.2,0,.4,0,.6h0,0Z"></path><path class="st3" d="M13.7,100.4c0,0,.2,0,.3.1.1-.2.2-.4.3-.6-.1,0-.2,0-.3,0l.3-.5c.2,0,.4,0,.5-.3.2-.5.4-.9.7-1.4,0-.1,0-.3,0-.5.4,0,.7-.2,1.1-.3-.7,1.4-1.4,2.9-2.1,4.3-.3-.1-.6-.3-.9-.4,0-.2.2-.3.2-.5h0ZM13.9,99.9c-.2,0-.3,0-.4.1,0,0,0,.2-.1.2,0,0,.2.1.3.1,0,.2-.2.3-.2.5-.3-.1-.6-.3-.8-.4.1-.2.2-.5.4-.7.2-.3.6-.5,1-.4,0,0,0,0,.2,0,0,.2-.2.4-.3.5,0,0,0,0,0,0h0Z"></path><path class="st3" d="M29.3,101c0-.1,0-.3-.2-.3-.1,0-.3,0-.3.2,0,.1,0,.3.2.3.2,0,.3,0,.3-.2Z"></path><path class="st3" d="M29.2,101.6c0-.1,0-.3-.2-.3-.1,0-.3,0-.3.2,0,.1.1.3.2.3.2,0,.3,0,.3-.2Z"></path><path class="st3" d="M14.4,97c0,.1,0,.3.1.4.1,0,.3,0,.4-.1,0-.1,0-.3-.1-.4-.1,0-.3,0-.4.1Z"></path><path class="st3" d="M14.7,96.5c0,.1,0,.3.1.4.1,0,.3,0,.4-.1,0-.1,0-.3-.1-.4-.1,0-.3,0-.4.1Z"></path><path class="st3" d="M52.2,99.6c-.4-.8-.8-1.7-1.2-2.5.4.1.8.3,1.2.4-.2.2-.2.3-.2.5.3.5.5,1.1.8,1.6,0,.2-.2.4-.2.6.2,0,.4.1.6.2.1.3.3.6.4.9-.3.1-.6.3-.9.4,0-.2-.1-.3-.2-.5.1,0,.2,0,.3-.1,0,0,0-.1,0-.2-.1,0-.3,0-.4-.1-.1-.2-.2-.4-.3-.7,0-.1.1-.2.2-.4h0ZM52.8,101.6c-.3.1-.6.3-.9.4-.1-.3-.3-.6-.4-.9.1-.2.2-.4.3-.6-.2,0-.4-.1-.6-.2,0,0,0,0,0-.1-.2-.5-.4-1-.7-1.5,0-.1-.2-.2-.5-.2.2-.4.3-.8.5-1.1.4.8.8,1.7,1.1,2.5.1,0,.3,0,.4.1.1.2.2.4.3.7,0,.1-.1.2-.2.4,0,0,0,.1,0,.2,0,0,.2,0,.3-.1,0,.2.2.3.2.5h0Z"></path><path class="st3" d="M53.4,102.2c.1,0,.2,0,.4.1-.4.2-.8.4-1.2.5,0-.1.1-.2.2-.3,0,0,.1,0,.2,0-.2-.2,0-.5.3-.4,0,0,0,0-.1,0,0,0-.1.1,0,.2,0,0,.1,0,.2,0,0,0,.1-.1.1-.2h0Z"></path><path class="st23" d="M72,84.4c0-.6,0-1,0-1.5.3,0,.9-.2,1.3-.2h2.9c0,.5-.2.8-.4.9-.2,0-.6,0-1.1,0h-1.2v2.1h2.6c-.1.8-.4,1-.8,1h-1.8v2.3c.3,0,.6,0,1.1,0s1.4,0,1.9,0h0c-.1.5-.3.8-.6,1-.2,0-.7,0-1.6,0s-1.8,0-2.1-.1l-.2-.2v-5.5h0Z"></path><path class="st23" d="M83.8,82.9c.2,0,1-.2,1.3-.2s.2,0,.2.4l.6,4.4c.2,1.2.3,2.1.4,2.7-.2,0-1,.1-1.2.1s-.3,0-.3-.3c0-.6-.1-1.3-.3-2.5l-.3-3c-.3,1-1,3-1.8,5.2,0,.2-.2.3-.4.4-.2,0-.5,0-.7,0-.3-.9-1.3-4.1-1.9-5.7-.2,1.5-.5,4.2-.7,5.6,0,.1,0,.2-.2.2-.3,0-.9,0-1.1-.1.2-1.2.7-4.3,1.2-7v-.2c.3,0,.7-.2,1.3-.2.2,0,.3.2.5.8l1.6,4.4c.6-1.5,1.4-3.7,1.9-4.9v-.2Z"></path><path class="st23" d="M87.8,84.3c0-.8,0-1.3,0-1.5.2,0,1-.1,1.3-.1s.2.1.2.6v5.3c0,.8,0,1.2,0,1.5-.2,0-1,0-1.3,0s-.2,0-.2-.2v-5.7h0Z"></path><path class="st23" d="M92.6,89.9c0,.2,0,.3-.3.3-.3,0-1,0-1.2,0,0-.5,0-1.2,0-2.2v-4c0-.6,0-.9,0-1.2.3,0,1.5-.2,2-.2,1.9,0,2.8.6,2.8,2.1s-.9,1.7-1.4,1.9c.3.2.6.8,1,1.5.6,1,.9,1.5,1.2,1.8h0c0,.1-.5.2-1,.2s-.8-.1-1.1-.5c-.3-.4-.5-.9-1-1.8-.4-.7-.6-.8-1-.8h-.2v2.8h0ZM92.6,86.3c.3,0,1,0,1.1,0,.2-.1.7-.4.7-1.2s-.6-1.4-1.4-1.4-.4,0-.5,0v2.7Z"></path><path class="st23" d="M99.3,88.1c-.3.7-.6,1.6-.8,1.9,0,.1-.1.2-.3.2-.3,0-.8,0-1-.2h0c.6-1.5,2.5-5.9,2.9-7v-.2c.3-.1,1-.1,1.1-.1s.2,0,.3.2c.5,1.3,1.4,3.6,1.8,4.7.5,1.2.8,2,1,2.5h0c-.3.1-1.1.2-1.3.2s-.3,0-.4-.4c-.2-.6-.4-1.1-.6-1.7h-2.7,0ZM101.7,87.1c-.5-1.5-.9-2.4-1-2.7-.3.8-.6,1.7-1,2.7h2Z"></path><path class="st23" d="M107.2,83.7h-2.1c-.2,0-.3,0-.2-.3.1-.4.3-.6.4-.7.2,0,.5,0,1.7,0h4.2c0,.6-.4.9-.6,1h-1.9v5c0,.8,0,1.2,0,1.4-.3,0-.8,0-1.3,0s-.2,0-.2-.2v-6.3h0Z"></path><path class="st23" d="M112.3,84.4c0-.6,0-1,0-1.5.3,0,.9-.2,1.3-.2h2.9c0,.5-.2.8-.4.9-.2,0-.6,0-1.1,0h-1.2v2.1h2.6c-.1.8-.4,1-.8,1h-1.8v2.3c.3,0,.6,0,1.1,0s1.4,0,1.9,0h0c-.1.5-.3.8-.6,1-.2,0-.7,0-1.6,0s-1.8,0-2.1-.1l-.2-.2v-5.5h0Z"></path><path class="st23" d="M121.9,83.1c0,.3-.2.8-.6.8-.3-.1-.8-.3-1.2-.3-.6,0-1.1.3-1.1.8s.4.8,1.5,1.5c1.1.6,1.7,1.1,1.7,2.2s-1.3,2.3-2.7,2.3-1.4-.2-1.7-.5c-.2-.1-.3-.2-.3-.4,0-.2.2-.7.3-.8.4.3,1.2.6,1.7.6s1.2-.3,1.2-.9-.3-.8-1.5-1.5c-1.4-.8-1.6-1.5-1.6-2.2s.6-2.1,2.5-2.1,1.4.3,1.7.6h0Z"></path><path class="st23" d="M126.1,84.2c0-.8,0-1,0-1.4.3,0,1.5-.2,2.4-.2,3.6,0,4.2,2.1,4.2,3.7,0,2.5-1.8,3.9-4.3,3.9s-1.6,0-2.4-.2v-5.8ZM127.6,89.2c.3,0,.6,0,.9,0,1.1,0,2.6-.5,2.6-3s-1-2.8-2.8-2.8-.6,0-.8,0v5.6h0Z"></path><path class="st23" d="M135.6,89.9c0,.2,0,.3-.3.3-.3,0-1,0-1.2,0,0-.5,0-1.2,0-2.2v-4c0-.6,0-.9,0-1.2.3,0,1.5-.2,2-.2,1.9,0,2.8.6,2.8,2.1s-.9,1.7-1.4,1.9c.3.2.6.8,1,1.5.6,1,.9,1.5,1.2,1.8h0c0,.1-.5.2-1,.2s-.8-.1-1.1-.5c-.3-.4-.5-.9-1-1.8-.4-.7-.6-.8-1-.8h-.2v2.8h0ZM135.6,86.3c.3,0,1,0,1.1,0,.2-.1.7-.4.7-1.2s-.6-1.4-1.4-1.4-.4,0-.5,0v2.7Z"></path><path class="st23" d="M142.2,86.7c0,2.2,1,2.6,1.8,2.6s1.8-.4,1.8-2.7v-3.5c0-.2.1-.3.2-.3.3,0,.8,0,1,0,0,.5,0,1.2,0,2.2v1.7c0,3.3-1.7,3.8-3.2,3.8s-3.1-1-3.1-3.6v-2.4c0-.8,0-1.3,0-1.5.2,0,1-.1,1.3-.1s.2.1.2.7v3.3h0Z"></path><path class="st23" d="M153.6,87.7c0-.5,0-.8,0-1.1.4,0,1-.2,1.3-.2s.2,0,.2.3v2.7c-.2.2-.6.4-.9.6-.4.1-1.1.3-1.6.3-2,0-4.1-.9-4.1-3.8s1.9-3.9,4.2-3.9,2.2.4,2.5.7c0,.5-.3.8-.7.8-.5-.2-1.2-.4-1.8-.4-1.5,0-2.6,1-2.6,2.8s1.4,3,2.8,3,.7,0,.8-.1v-1.5h0Z"></path><path class="st23" d="M159.3,84.4c0-.6,0-1,0-1.5.3,0,.9-.2,1.3-.2h2.9c0,.5-.2.8-.4.9-.2,0-.6,0-1.1,0h-1.2v2.1h2.6c-.1.8-.4,1-.8,1h-1.8v2.3c.3,0,.6,0,1.1,0s1.4,0,1.9,0h0c-.1.5-.3.8-.6,1-.2,0-.7,0-1.6,0s-1.8,0-2.1-.1l-.2-.2v-5.5h0Z"></path><path class="st23" d="M168.9,83.1c0,.3-.2.8-.6.8-.3-.1-.8-.3-1.2-.3-.6,0-1.1.3-1.1.8s.4.8,1.5,1.5c1.1.6,1.7,1.1,1.7,2.2s-1.3,2.3-2.7,2.3-1.4-.2-1.7-.5c-.2-.1-.3-.2-.3-.4,0-.2.2-.7.3-.8.4.3,1.2.6,1.7.6s1.2-.3,1.2-.9-.3-.8-1.5-1.5c-1.4-.8-1.6-1.5-1.6-2.2s.6-2.1,2.5-2.1,1.4.3,1.7.6h0Z"></path><path class="st23" d="M172.2,83.7h-2.1c-.2,0-.3,0-.2-.3.1-.4.3-.6.4-.7.2,0,.5,0,1.7,0h4.2c0,.6-.4.9-.6,1h-1.9v5c0,.8,0,1.2,0,1.4-.3,0-.8,0-1.3,0s-.2,0-.2-.2v-6.3h0Z"></path><path class="st23" d="M178.8,88.1c-.3.7-.6,1.6-.8,1.9,0,.1-.1.2-.3.2-.3,0-.8,0-1-.2h0c.6-1.5,2.5-5.9,2.9-7v-.2c.3-.1,1-.1,1.1-.1s.2,0,.3.2c.5,1.3,1.4,3.6,1.8,4.7.5,1.2.8,2,1,2.5h0c-.3.1-1.1.2-1.3.2s-.3,0-.4-.4c-.2-.6-.4-1.1-.6-1.7h-2.7,0ZM181.2,87.1c-.5-1.5-.9-2.4-1-2.7-.3.8-.6,1.7-1,2.7h2Z"></path><path class="st23" d="M185,84.4c0-.6,0-1,0-1.5.3,0,1.4-.2,2.2-.2,2.2,0,2.6,1.1,2.6,1.8s-.5,1.3-1,1.6c1,.3,1.5,1,1.5,1.8,0,1.6-1.3,2.4-3.2,2.4s-1.5,0-2-.2v-5.7h0ZM186.5,85.9c.3,0,.7,0,1.3,0,.3-.2.6-.5.6-1.1s-.5-1.2-1.2-1.2-.5,0-.6,0v2.3ZM186.5,89.3c.2,0,.4,0,.6,0,.9,0,1.5-.5,1.5-1.4s-.6-1.2-1.6-1.2-.4,0-.6,0v2.5h0Z"></path><path class="st23" d="M191.6,84.3c0-.8,0-1.3,0-1.5.2,0,.8-.1,1.3-.1s.2.1.2.7v5.8c.2,0,.6,0,1.1,0s1.2,0,1.8,0h0c0,.5-.3.8-.6,1-.2,0-.6,0-1.5,0s-1.8,0-2.1-.1l-.2-.2v-5.5h0Z"></path><path class="st23" d="M197.1,84.3c0-.8,0-1.3,0-1.5.2,0,1-.1,1.3-.1s.2.1.2.6v5.3c0,.8,0,1.2,0,1.5-.2,0-1,0-1.3,0s-.2,0-.2-.2v-5.7h0Z"></path><path class="st23" d="M204.3,83.1c0,.3-.2.8-.6.8-.3-.1-.8-.3-1.2-.3-.6,0-1.1.3-1.1.8s.4.8,1.5,1.5c1.1.6,1.7,1.1,1.7,2.2s-1.3,2.3-2.7,2.3-1.4-.2-1.7-.5c-.2-.1-.3-.2-.3-.4,0-.2.2-.7.3-.8.4.3,1.2.6,1.7.6s1.2-.3,1.2-.9-.3-.8-1.5-1.5c-1.4-.8-1.6-1.5-1.6-2.2s.6-2.1,2.5-2.1,1.4.3,1.7.6h0Z"></path><path class="st23" d="M210.6,85.8v-2.7c0-.3,0-.3.3-.3.3,0,.9,0,1.2,0,0,.4,0,1.2,0,2.1v3.8c0,.8,0,1.2,0,1.5-.2,0-1,0-1.3,0s-.2,0-.2-.2v-3.3c-.2,0-.6,0-1.4,0h-1.8v3.1c0,.2-.1.3-.4.3-.3,0-.9,0-1.2,0,0-.5,0-1.2,0-2.2v-3.8c0-.8,0-1.3,0-1.5.3,0,1-.1,1.3-.1s.2.1.2.6v2.5h3.2Z"></path><path class="st23" d="M220,82.9c.2,0,1-.2,1.3-.2s.2,0,.2.4l.6,4.4c.2,1.2.3,2.1.4,2.7-.2,0-1,.1-1.2.1s-.3,0-.3-.3c0-.6-.1-1.3-.3-2.5l-.3-3c-.3,1-1,3-1.8,5.2,0,.2-.2.3-.4.4-.2,0-.5,0-.7,0-.3-.9-1.3-4.1-1.9-5.7-.2,1.5-.5,4.2-.7,5.6,0,.1,0,.2-.2.2-.3,0-.9,0-1.1-.1.2-1.2.7-4.3,1.2-7v-.2c.3,0,.7-.2,1.3-.2.2,0,.3.2.5.8l1.6,4.4c.6-1.5,1.4-3.7,1.9-4.9v-.2h0Z"></path><path class="st23" d="M224,84.4c0-.6,0-1,0-1.5.3,0,.9-.2,1.3-.2h2.9c0,.5-.2.8-.4.9-.2,0-.6,0-1.1,0h-1.2v2.1h2.6c-.1.8-.4,1-.8,1h-1.8v2.3c.3,0,.6,0,1.1,0s1.4,0,1.9,0h0c-.1.5-.3.8-.6,1-.2,0-.7,0-1.6,0s-1.8,0-2.1-.1l-.2-.2v-5.5h0Z"></path><path class="st23" d="M229.5,82.8h0c.2,0,1.3-.2,1.5-.2s.2,0,.3.2c.4.5,1.4,2,2.2,3.3.5.8,1,1.5,1.3,2.1,0-.9,0-1.4,0-2v-3.3c0-.3,0-.3.3-.3.3,0,.7,0,1,0,0,.5,0,1.2,0,2.2v5.2c-.1,0-.8.2-1.1.2s-.2,0-.3-.2c-.6-.9-1.2-1.8-2.1-3.2-.6-1-1-1.6-1.5-2.6,0,1.2,0,1.8,0,2.4v3.1c0,.2,0,.3-.3.3-.2,0-.6,0-1,0,0-.5,0-1.2,0-2.2v-4.9l-.2-.3h0Z"></path><path class="st23" d="M239.5,83.7h-2.1c-.2,0-.3,0-.2-.3.1-.4.3-.6.4-.7.2,0,.5,0,1.7,0h4.2c0,.6-.4.9-.6,1h-1.9v5c0,.8,0,1.2,0,1.4-.3,0-.8,0-1.3,0s-.2,0-.2-.2v-6.3h0Z"></path><path class="st22" d="M78.4,67.9c-.3.4-.6.9-1.1,1.6-.5,0-1.3.1-2.5.4-.2,0-.7.3-1.5.8-.7.5-1.1.7-1.1.6,0-.3.2-.7.6-1.1.3-.3.7-.6,1.1-.8h.2c0-.1-1.3-.3-1.3-.3-.6-.2-.8-.4-.8-.8,0-.8.3-1.6,1-2.4.8-1,1.7-1.4,2.9-1.4s.7.2,1,.5c.2.2.2.4.2.6l-.9,1.2c-.5-.5-1-.7-1.5-.7s-.5,0-.8.2c-.3.2-.5.4-.5.6,0,.6,1.6.9,4.9.9h0Z"></path><path class="st22" d="M82.9,66.7c0,1.5-.4,2.8-1.1,3.7l-1-8.4c0-.2.5-1.1,1.5-2.6.4,2.1.6,4.5.6,7.2Z"></path><path class="st22" d="M90.5,67.6c0,1.5-.4,2.9-1.1,4.3-.8,1.6-1.9,2.5-3.1,2.5s-1.3-.2-2.6-.5c-1.3-.3-2-.6-2-.8s0-.2.3-.2.5,0,1,.2c.5.1.8.2,1.1.2s.7,0,1-.2c.9-.4,1.8-1,2.7-1.8,1.1-.9,1.6-1.8,1.7-2.6,0-.2,0-.6-.2-1.1-.3.7-.5,1.2-.8,1.5-.3.4-.9.5-1.5.5s-1.1-.3-1.3-.8c-.1-.3-.1-.8-.1-1.5s.3-1.2.9-2.2c.7-1,1.3-1.5,1.8-1.5s1.1.5,1.5,1.6c.4.9.5,1.7.5,2.4h0ZM88.8,67.2h0c0-.4-.1-.7-.3-1-.2-.3-.5-.4-.8-.4s-.5.1-.8.3-.5.4-.5.7.2.3.5.4c.3.1.6.2.9.2s.5-.1,1-.3h0Z"></path><path class="st22" d="M100.2,69.9h-1.5c-.1,0-.2-.1-.3-.4s-.2-.6-.3-1h0c0-.1-.1,0-.1,0-.1,0-.3.3-.5.8-.2.4-.3.6-.5.6h-4.7c-.3,0-.4-.1-.4-.4,0-.6.2-1.5.4-2.7.2-.6.3-1,.4-1s0,.3,0,1,.2,1,.5,1h4.5c0-.4,0-1.1-.4-2.1-.3-1.1-.4-1.6-.4-1.5l1-2.1c.2.6.6,2.2,1.2,4.9.2.6.3.9.5.9h.4v2.2h0Z"></path><path class="st22" d="M101.7,69.9h-2v-2.2h2v2.2Z"></path><path class="st22" d="M103.1,69.9h-2v-2.2h2v2.2Z"></path><path class="st22" d="M104.5,69.9h-2v-2.2h2v2.2Z"></path><path class="st22" d="M105.8,69.9h-2v-2.2h2v2.2Z"></path><path class="st22" d="M107.2,69.9h-2v-2.2h2v2.2Z"></path><path class="st22" d="M113.1,69.9h-1.8c-.2,0-.3-.1-.3-.3l-.2-1c-.3.4-.6.8-1,1.4h-3.2v-2.2h4l-1-6.6c.4-.6,1-1.3,1.6-2.2,0,.4.2,1.8.4,4.2l.3,3.9c0,.5.2.7.6.7h.5v2.2h0Z"></path><path class="st22" d="M118.9,61.6c-.1.2-.4.5-.8,1.1l-.8,1h0c0,.3.1,1.4.4,3.4,0,.3,0,.8-.2,1.4-.2.6-.3,1.1-.3,1.3h0c0,.2-.2.2-.7.2h-4v-2.2h3.8c0,0,0-.2,0-.4,0-.6-.1-1.5-.4-2.7-.3-1.2-.4-2.1-.4-2.5h0s-.7-.6-.7-.6c.6-1.2,1.1-2,1.4-2.4,0,.5.1.8.4,1.1.6.4,1.4.9,2.3,1.4h0Z"></path><path class="st22" d="M135.6,66c0,.4,0,1-.2,1.8-.2.6-.5,1.3-.9,2.1h-7.9c-.6,0-1.2-.2-1.7-.6-.6-.4-.8-.9-.8-1.6s.1-1.2.4-2.2c.3-1.2.6-1.8.9-1.8s.1.2,0,.7c-.1.7-.2,1.1-.2,1.4,0,.4,0,.7.3,1,.5.6,1.2.9,2,.9h6.8c0,0,.1-.2.1-.3s0-.4-.3-.9c-.2-.3-.4-.6-.6-1l1.1-1.9c.7.9,1.1,1.7,1.1,2.4h0ZM132.4,61.1c-.6.8-1,1.2-1.1,1.2s-.3-.1-.8-.4c-.5-.3-.8-.4-.8-.4-.2.2-.5.5-.8.8-.2,0-.4-.2-.8-.4-.4-.2-.6-.4-.7-.5.3-.3.6-.7,1.1-1.2.1.1.3.3.7.5.3.2.6.3.7.3s.2-.1.4-.4c.3-.3.4-.4.5-.4l1.6.8h0Z"></path><path class="st22" d="M139.4,66.7c0,1.5-.4,2.8-1.1,3.7l-1-8.4c0-.2.5-1.1,1.5-2.6.4,2.1.6,4.5.6,7.2Z"></path><path class="st22" d="M145.8,68.5c0,1.3-.4,2.6-1.3,4-.7,1.2-1.6,1.8-2.5,1.8s-1.3-.2-2.5-.7c-1.3-.5-2-.9-2-1.1s0-.2.2-.2.5.1,1.1.3c.6.2,1.1.3,1.4.3.7,0,1.6-.5,2.8-1.5,1.2-1,1.8-1.9,1.8-2.6s-.3-.7-.9-1.3c-.4-.4-.8-.8-1.2-1,.1-.2.3-.9.7-2.1.5.3,1,.7,1.4,1.3.6.8.9,1.8.9,2.8h0Z"></path><path class="st22" d="M151.1,69.9h-2.8l-.8-9.4,1.4-1.7c0,.6.2,2.2.4,4.7l.4,3.7c0,.3.3.5.8.5h.8v2.2h0Z"></path><path class="st22" d="M152.7,69.9h-2v-2.2h2v2.2Z"></path><path class="st22" d="M154,69.9h-2v-2.2h2v2.2Z"></path><path class="st22" d="M155.4,69.9h-2v-2.2h2v2.2Z"></path><path class="st22" d="M156.7,69.9h-2v-2.2h2v2.2Z"></path><path class="st22" d="M165.7,67.6c0,0-.2.4-.6,1.1-.4.6-.6,1-.7,1.1l-3.9-1.4c-.2,0-.4.3-.7.9-.3.5-.5.8-.7.8h-2.9v-2.2h3.5c.2-.4.4-1,.8-1.7.5-.9,1.2-1.6,2.2-2,0,0,.3,0,.7-.3.4-.2.8-.3,1-.3s.3,0,.4.2c0,.2.1.5.2.9.1.3.3.8.5,1.5.2.6.3,1.1.3,1.5ZM163.9,67.1c-.1-.4-.3-.7-.4-.9-.2-.5-.4-.7-.5-.7-.3,0-.6,0-.9.2-.2.1-.3.2-.5.3l-.2.2,2.5,1h0Z"></path><path class="st22" d="M177.8,60.3c-.1.2-.5.8-1.2,1.8-.2,0-.3,0-.4,0-.1,0-.2-.1-.3-.1,0,.7-.2,1.4-.5,2.2-.4.8-.6,1.3-.8,1.5l.3.7c.2.5.3.9.4,1.2,0,.2,0,.4,0,.6,0,.3,0,.7,0,1.2v.7h-5.7c-.3,0-.5-.4-.5-1.3s0-.6,0-1c0-.5.1-.7.2-.7,0,0,.1.1.3.4s.4.4.8.4.5,0,.8-.3c.3-.2.5-.4.7-.5.5-.4.9-.7,1.1-1,0-.1-.4-.6-1.2-1.5-.6-.6-1-1-1.2-1s0,.1-.1.3c0,.2-.1.3-.2.3,0,0-.3-.2-.7-.5-.5-.3-1-.6-1.4-.8-.5-.2-.7-.6-.7-1.3s.2-1.3.7-2.3c.6,0,1.7.8,3.3,2.2.5.5,1.1,1.1,1.6,1.8.2.3.5.8,1,1.4.4-.6.6-1.5.6-2.7s0-.7-.3-1c-.2-.3-.3-.4-.3-.4,0,0,.5-.9,1.5-2.4,0,.6.3,1,.7,1.3,1,.5,1.4.8,1.4,1h0ZM172.2,73.3c0,.2-.3.5-.6.9h-.2c-.7,0-1.7.4-3,1.3.2-.5.6-.9,1.3-1.2,0,0-.3-.1-.8-.3-.4-.1-.6-.2-.6-.4,0-.5.2-1,.6-1.5.4-.6,1-.9,1.7-.9h0c.1,0,.3,0,.4.2.2.1.2.3.2.4-.1.2-.3.5-.5.8l-.4-.4c-.1-.1-.3-.2-.4-.2s-.5.2-.9.5c.3.3.7.5,1.2.5.5,0,1.2,0,2,.1h0ZM174.2,67.8c0-.4-.3-.9-.6-1.3-.4.5-.8.9-1.4,1.3.1,0,.4.1.9.1s.8,0,1.1,0h0Z"></path><path class="st22" d="M181.7,66.7c0,1.5-.4,2.8-1.1,3.7l-1-8.4c0-.2.5-1.1,1.5-2.6.4,2.1.6,4.5.6,7.2Z"></path><path class="st22" d="M191.6,59.9c-.7.8-1,1.2-1.1,1.2s-.3-.1-.8-.4c-.5-.2-.8-.4-.8-.4-.3.2-.5.5-.8.8-.2,0-.5-.2-.8-.4-.4-.2-.6-.4-.8-.5.3-.3.6-.7,1.1-1.2.1.1.3.3.7.5.4.2.6.3.7.3s.2-.1.4-.4c.2-.2.4-.4.5-.5l1.6.9h0ZM194.5,69.9h-1.3c-.4,0-.7-.3-.9-.8,0-.2-.2-.7-.3-1.5h0c0,0-.1,0-.1,0-.2.1-.4.4-.7,1-.2.5-.5.7-.7.7s-.9-.1-1.6-.3c-.8-.2-1.3-.3-1.7-.3,0-.3.1-.9.4-1.6.3-.8.6-1.3.8-1.5.3-.3.8-.6,1.4-.9.7-.4,1.2-.7,1.4-.9,0,0,0-.2-.1-.3,0-.1-.1-.3-.1-.3.3-.3.6-1,1.1-1.9h0c.1.4.3,1.6.6,3.4.3,1.8.4,2.7.4,2.8.1.2.2.3.3.3,0,0,.2,0,.5,0h.6v2.2ZM191.9,66.7c0-.2,0-.6-.2-1.2-.1-.7-.2-1-.3-1.1-.2.1-.3.3-.4.5-.1.3-.2.5-.3.5-.2.3-.5.5-1,.7-.5.2-.8.4-.9.4.2,0,.7.2,1.4.3.5.1,1,.1,1.5,0v-.2s0,0,0,0Z"></path><path class="st22" d="M196.1,69.9h-2v-2.2h2v2.2Z"></path><path class="st22" d="M197.4,69.9h-2v-2.2h2v2.2Z"></path><path class="st22" d="M198.8,69.9h-2v-2.2h2v2.2Z"></path><path class="st22" d="M211,69.9h-1.1l-.2-.7c-.2.4-.3.6-.3.7h-2.9s0-.1-.2-.3c0-.1-.1-.2-.2-.2,0,0-.1,0-.2.2,0,.1-.2.2-.3.3h-3.7c-.2,0-.4-.3-.5-.8h-.1c-.4.5-.7.8-.9.8h-2.1v-2.2h2.7c.4,0,.6-.4.6-1.3.3-.3.7-1,1.4-1.8,0,.4-.1,1-.3,1.6-.1.4-.3.8-.4,1.2h0c.1.3.8.4,2.1.4s1.2,0,1.7,0c0-.4.1-.8.2-1.3.3-.6.8-1.1,1.3-1.6-.4,1.3-.6,2.2-.6,2.6s0,.2,0,.3h0s2,0,2,0c0-.4-.2-.8-.3-1.4,0,0,.2-.4.6-.9.4-.5.6-.8.7-.9v2.5c0,.3,0,.6,0,.7h.8v2.2h0Z"></path><path class="st22" d="M212.6,69.9h-2v-2.2h2v2.2Z"></path><path class="st22" d="M213.9,69.9h-2v-2.2h2v2.2Z"></path><path class="st22" d="M225.5,67.1c0,.6,0,1.1-.2,1.5-.2.5-.4.9-.6,1.4h-2.9s0-.2-.2-.3c0-.1-.1-.2-.2-.2,0,0-.2.1-.4.4-.3.1-.9.2-1.9.2s-1.8-.1-2-.3c-.1-.1-.2-.3-.3-.5h-.1c-.3.5-.7.8-1,.8h-2.4v-2.2h3.1c.4,0,.6-.4.6-1.2,0-.2.6-.8,1.6-1.8,0,.3-.1.8-.3,1.5-.3.8-.4,1.2-.4,1.2,0,.3.6.4,1.7.4s1.1,0,1.5-.1c0-.4.1-.8.2-1.3.2-.3.7-.9,1.5-1.6-.4,1.4-.6,2.3-.6,2.6s0,.2,0,.2h0s1.8,0,1.8,0c0-.4-.2-.8-.3-1.4,0,0,.2-.4.7-.9.4-.5.7-.8.8-1v2.5h0Z"></path><path class="st22" d="M233.7,69.9h-.9c-.2.9-.7,1.8-1.4,2.7-.8,1-1.6,1.5-2.4,1.5-.4,0-1.1-.3-2.4-.8-1.2-.5-1.9-.9-1.9-1.1s0-.2.2-.2.4,0,.9.2c.4.2.8.2,1,.3.8,0,1.7-.3,2.7-.8,1-.6,1.7-1.2,2.1-1.9h-.3c-2.2,0-3.3-.5-3.3-1.6s.3-1.2.8-2.4c.7-1.4,1.3-2.2,2-2.2s1.1.6,1.6,1.8c.3.9.5,1.6.5,2h0c0,.1.6.1.6.1v2.2h0ZM232,61.7c-.2.3-.4.6-.6.9-.7,0-1.4.2-2.3.8-.4.3-.8.5-1,.6,0-.1.1-.3.3-.6.3-.3.6-.6,1-.8l-.8-.3c-.4-.1-.6-.3-.6-.6,0-.4.2-.9.6-1.4.5-.6,1-.9,1.7-.9s.6.2.6.7c0,.1-.2.4-.3.7-.2-.3-.5-.5-1-.5s-.3,0-.6.2c-.3.1-.4.3-.4.4,0,.5.8.8,2.5.8s.6,0,.9,0h0ZM231.5,67.4h0c-.3-1.1-.7-1.6-1.2-1.6s-.7.3-1,.8h0c0,.3.2.6.5.8.3.2.6.2,1,.2s.6,0,.7-.3h0Z"></path><path class="st22" d="M242.8,67.6c0,0-.2.4-.6,1.1s-.6,1-.7,1.1l-3.9-1.4c-.2,0-.4.3-.7.9-.3.5-.5.8-.7.8h-2.9v-2.2h3.5c.2-.4.4-1,.8-1.7.5-.9,1.2-1.6,2.2-2,0,0,.3,0,.7-.3s.8-.3,1-.3.3,0,.4.2c0,.2.1.5.2.9.1.3.3.8.5,1.5.2.6.3,1.1.3,1.5ZM241,67.1c-.1-.4-.3-.7-.4-.9-.2-.5-.4-.7-.5-.7-.3,0-.6,0-.9.2-.2.1-.3.2-.5.3l-.2.2,2.5,1h0Z"></path></svg> 