<?xml version="1.0" encoding="UTF-8"?> <svg xmlns="http://www.w3.org/2000/svg" id="Layer_1" viewBox="0 0 250 150"><defs><style>.cls-1{fill:#ec2027;}</style></defs><path class="cls-1" d="M175.4,37.93c-2.09,0-3.79,1.7-3.79,3.8s1.7,3.8,3.79,3.8c2.09,0,3.8-1.7,3.8-3.8,0-2.09-1.7-3.8-3.8-3.8ZM182.95,38.99c2.09,0,3.8-1.7,3.8-3.8,0-2.09-1.7-3.8-3.8-3.8s-3.8,1.7-3.8,3.8c0,2.09,1.7,3.8,3.8,3.8ZM190.54,45.53c2.09,0,3.8-1.7,3.8-3.8s-1.7-3.8-3.8-3.8-3.8,1.7-3.8,3.8,1.7,3.8,3.8,3.8ZM202.94,118.51v-16.73c0-5.81-3.78-9.71-9.4-9.71-.96,0-5.76.22-9.51,4.38-1.61-2.76-4.57-4.38-8.06-4.38-2.7,0-5.6,1.08-8.17,4.12v-4.1h-5.84v26.42h5.84v-7.5c0-12.47,6.81-13.11,8.17-13.11,2.95,0,3.57,2.1,3.57,3.87v16.73h5.84v-7.56c.03-12.41,6.81-13.04,8.16-13.04,2.95,0,3.57,2.1,3.57,3.87v16.73h5.84ZM118.34,54.06v10.6c0,1.76-.62,3.87-3.57,3.87h-7.14c-.32,0-7.83-.08-7.83-7.4v-13.2h-5.84v16.73c0,1.76-.62,3.87-3.57,3.87-1.36,0-8.13-.63-8.16-13.03v-7.56h-5.84v16.73c0,1.76-.62,3.87-3.57,3.87-3.76,0-8.16-3.43-8.16-13.09v-7.51h-5.84v24.47c0,5.05-2.78,7.95-7.63,7.95-4.27,0-8.31-2.1-11.08-5.76-4.49-5.94-5.38-15.01-2.5-25.53l.31-1.13h-6.06l-.17.68c-3.01,11.85-1.67,22.33,3.76,29.51,3.88,5.13,9.62,8.08,15.74,8.08,8.18,0,13.47-5.41,13.47-13.79v-1.88c2.31,2.95,5.64,3.85,8.16,3.85,3.5,0,7.08-1.76,8.06-5.14,2.77,4.02,6.74,5.14,9.51,5.14,3.14,0,6.54-1.36,7.54-4.35,2.41,2.86,5.63,4.35,9.69,4.35h7.14c3.5,0,6.98-1.72,8.06-5.04,2.77,4.15,6.95,5.04,8.9,5.04h3c2.63,0,6.48-1.87,7.65-4.76,2.18,3.18,6.39,4.76,10.2,4.76h6.82c3.11,0,6.54-1.87,7.44-5.28,2.59,4.05,6.83,5.28,9.63,5.28,4.49,0,7.34-2.68,8.06-5.14,2.98,4.08,6.73,5.14,9.51,5.14,5.63,0,9.41-3.9,9.41-9.71v-16.73h-5.84v16.73c0,1.76-.62,3.87-3.57,3.87-1.36,0-8.13-.63-8.16-13.03v-7.56h-5.84v16.73c0,1.76-.62,3.87-3.57,3.87-3.77,0-8.17-3.43-8.17-13.11v-7.49h-5.84v16.2c0,1.77-.82,4.4-3.07,4.4h-6.82c-.32,0-7.83-.08-7.83-7.4v-2.41c0-5.96-4.84-10.8-10.79-10.8h-9.33c-3.71,0-6.3,2.53-6.3,6.14ZM124.18,54.06c0-.19.02-.24.02-.24h0s.1-.06.44-.06h9.33c2.78,0,4.96,2.18,4.96,4.96v4.9c0,2.97-2.53,4.85-4.88,4.89l-1.71.02c-1.36,0-8.17-.63-8.17-13.11v-1.36ZM80.96,113.22c-7.12,0-12.58-3.72-12.63-3.75l-2.39-1.68-3.35,4.78,2.39,1.68c.28.2,6.96,4.81,15.98,4.81,9.96,0,16.64-4.55,16.64-11.33,0-8.44-8.59-11.07-16.08-12.42l-.15-.03c-7.08-1.27-11.72-2.33-11.72-5.29,0-2.64,4.95-4.88,10.8-4.88,6.1,0,11.38,2.63,11.43,2.66l2.6,1.33,2.66-5.2-2.6-1.33c-.26-.13-6.5-3.3-14.09-3.3-9.64,0-16.63,4.51-16.63,10.72,0,8.07,8.78,9.65,16.53,11.04l.16.03c9.93,1.79,11.27,4.38,11.27,6.67,0,3.77-5.6,5.49-10.81,5.49ZM219.44,112.66c-3.27,0-6.55-1.91-6.91-2.13l-2.48-1.54-3.09,4.95,2.48,1.55c.2.12,4.91,3.01,10,3.01,6.65,0,11.11-3.27,11.11-8.14,0-6.51-6.94-7.71-10.67-8.35-2.28-.39-6.11-1.05-6.11-2.12,0-.93,2.18-1.97,5.31-1.97s5.96,1.19,6.08,1.24l2.68,1.15,2.31-5.36-2.68-1.16c-.16-.07-4.06-1.71-8.39-1.71-6.57,0-11.15,3.21-11.15,7.81,0,5.99,6.62,7.13,11,7.89,5.78.99,5.78,2.07,5.78,2.59,0,1.68-3.23,2.3-5.27,2.3ZM116.12,92.07c-2.75,0-5.79,1.17-8.17,4.02v-17.72h-5.84v40.1h5.84v-7.45c0-12.47,6.8-13.11,8.17-13.11,2.95,0,3.57,2.1,3.57,3.87v16.73h5.84v-16.73c0-5.81-3.78-9.71-9.41-9.71ZM142.96,118.51c1.43,0,4.9-.78,7.56-4.09v4.1h5.84v-20.31c0-3.62-2.59-6.14-6.3-6.14h-9.33c-5.95,0-10.79,4.85-10.79,10.8v4.9c0,5.72,4.68,10.75,10.03,10.75h3ZM135.77,107.76v-4.9c0-2.78,2.18-4.96,4.96-4.96h9.33c.33,0,.43.05.44.05,0,0,.03.06.03.25v1.36c0,12.47-6.8,13.11-8.15,13.11l-1.71-.02c-2.35-.04-4.88-1.92-4.88-4.89Z"></path></svg> 