<?xml version="1.0" encoding="UTF-8"?> <svg xmlns="http://www.w3.org/2000/svg" id="Layer_1" viewBox="0 0 250 150"><defs><style>.cls-1{fill:#0064a7;}</style></defs><path class="cls-1" d="M20.71,65.73c0-1.97-.61-3.81-1.76-5.44-1.16-1.66-2.72-2.8-4.62-3.48,1-.38,2.04-.57,3.19-.57,2.93,0,5.36,1.12,7.3,3.38,2.49-2.26,5.39-3.38,8.71-3.38,3.87,0,7.07,1.43,9.66,4.31.09-.12.26-.32.55-.59,2.46-2.46,5.49-3.71,9.07-3.71s6.58,1.23,9.08,3.7c2.55,2.45,3.75,5.43,3.75,8.95v22.16c0,2.12-1.05,3.2-3.18,3.2s-3.23-1.08-3.23-3.2v-22.18c0-1.76-.63-3.27-1.83-4.47-1.27-1.22-2.8-1.83-4.57-1.83s-3.33.6-4.57,1.83c-1.22,1.2-1.84,2.7-1.84,4.47v22.01h0c0,.06,0,.11,0,.17,0,.57-.19,1.11-.47,1.62-.62,1.05-1.55,1.57-2.75,1.57-2.14,0-3.21-1.08-3.21-3.2v-22.18c0-1.76-.63-3.27-1.85-4.47-1.27-1.22-2.79-1.83-4.59-1.83s-3.31.6-4.55,1.83c-1.24,1.2-1.89,2.7-1.89,4.47v22.18c0,2.12-1.08,3.2-3.21,3.2s-3.21-1.08-3.21-3.2v-25.32Z"></path><path class="cls-1" d="M93.27,68.86c0-1.76-.63-3.27-1.87-4.47-1.25-1.22-2.78-1.83-4.57-1.83s-3.31.6-4.58,1.83c-1.23,1.2-1.84,2.7-1.84,4.47v6.54c0,2.01,1.02,3.04,3.08,3.04h6.73c2.02,0,3.06-1.03,3.06-3.04v-6.54ZM80.41,81.57v3.13c0,2.04.57,3.88,1.75,5.51,1.18,1.65,2.72,2.8,4.67,3.44-1.09.4-2.17.59-3.21.59-2.7,0-4.97-.93-6.85-2.78-1.86-1.85-2.78-4.11-2.78-6.76v-15.81c0-3.52,1.22-6.52,3.74-8.96,2.51-2.46,5.5-3.69,9.09-3.69s6.59,1.23,9.09,3.7c2.51,2.45,3.79,5.43,3.79,8.95v6.33c0,1.79-.63,3.28-1.9,4.49-1.24,1.23-2.77,1.87-4.55,1.87h-12.87Z"></path><path class="cls-1" d="M107.19,59.39c0-2.09,1.06-3.16,3.2-3.16s3.18,1.06,3.18,3.17v22.17c0,1.79.63,3.3,1.86,4.5,1.24,1.22,2.8,1.82,4.59,1.82s3.31-.6,4.58-1.82c1.24-1.22,1.86-2.72,1.86-4.5v-22.17c0-2.11,1.05-3.17,3.2-3.17s3.21,1.06,3.21,3.16c0,.08,0,.14-.01.19h.01v50.52c0,2.63-.94,4.87-2.82,6.74-1.88,1.84-4.17,2.78-6.83,2.78-1.05,0-2.12-.19-3.2-.56,1.9-.71,3.46-1.85,4.65-3.5,1.17-1.61,1.78-3.44,1.78-5.46v-17.59c-1.98,1.14-4.13,1.74-6.44,1.74-3.57,0-6.62-1.26-9.1-3.71-2.49-2.45-3.73-5.46-3.73-8.96v-22.18Z"></path><path class="cls-1" d="M154.1,62.57c-1.8,0-3.31.6-4.55,1.83-1.25,1.21-1.86,2.7-1.86,4.49v12.68c0,1.79.61,3.3,1.85,4.5,1.22,1.22,2.74,1.82,4.56,1.82s3.34-.6,4.55-1.82c1.26-1.22,1.88-2.72,1.88-4.5v-12.68c0-1.79-.61-3.28-1.88-4.49-1.21-1.22-2.75-1.83-4.55-1.83M166.95,81.57c0,3.5-1.23,6.51-3.74,8.96-2.49,2.46-5.53,3.71-9.1,3.71s-6.6-1.26-9.11-3.71c-2.48-2.45-3.72-5.46-3.72-8.96v-12.68c0-3.52,1.24-6.52,3.72-8.96,2.51-2.46,5.55-3.69,9.11-3.69,2.31,0,4.42.57,6.43,1.7v-17.52c0-2.01-.61-3.83-1.79-5.48-1.13-1.62-2.73-2.78-4.64-3.48,1.03-.34,2.08-.54,3.2-.54,2.67,0,4.93.94,6.82,2.79,1.91,1.83,2.84,4.07,2.84,6.71v41.15Z"></path><path class="cls-1" d="M188.03,62.57c-1.79,0-3.32.6-4.55,1.83-1.28,1.21-1.89,2.7-1.89,4.49v12.68c0,1.79.62,3.3,1.89,4.5,1.21,1.22,2.74,1.82,4.55,1.82s3.33-.6,4.57-1.82c1.24-1.22,1.86-2.72,1.86-4.5v-12.68c0-1.79-.62-3.28-1.86-4.49-1.24-1.22-2.77-1.83-4.57-1.83M200.89,84.7c0,2.05.57,3.88,1.76,5.53,1.15,1.63,2.69,2.79,4.62,3.42-1.09.4-2.17.59-3.19.59-2.99,0-5.43-1.14-7.34-3.41-2.5,2.27-5.39,3.41-8.7,3.41-3.59,0-6.61-1.26-9.09-3.71-2.52-2.45-3.77-5.46-3.77-8.96v-12.68c0-3.52,1.25-6.52,3.77-8.96,2.48-2.46,5.5-3.69,9.09-3.69s6.6,1.23,9.1,3.7c2.5,2.45,3.76,5.43,3.76,8.95v15.81Z"></path><path class="cls-1" d="M210.97,65.73c0-1.97-.59-3.81-1.78-5.44-1.15-1.66-2.7-2.8-4.57-3.48.99-.38,2.04-.57,3.18-.57,2.92,0,5.37,1.12,7.3,3.38,2.48-2.26,5.37-3.38,8.71-3.38,3.55,0,6.57,1.23,9.12,3.7,2.47,2.45,3.74,5.43,3.74,8.95v22h-.04s.04.09.04.16c0,2.12-1.09,3.2-3.24,3.2s-3.18-1.08-3.18-3.2v-22.18c0-1.76-.62-3.27-1.87-4.47-1.24-1.22-2.74-1.83-4.55-1.83s-3.32.6-4.55,1.83c-1.25,1.2-1.89,2.7-1.89,4.47v22.18c0,2.12-1.08,3.2-3.2,3.2s-3.2-1.08-3.2-3.2v-25.32Z"></path></svg> 